<svg width="15" height="15" viewBox="0 0 15 15" fill="none" xmlns="http://www.w3.org/2000/svg">
<path d="M9.94305 7.57699L14.9999 10.7739V4.24512L9.94305 7.57699Z" fill="white"/>
<path d="M0 4.24512V10.7739L5.05688 7.57699L0 4.24512Z" fill="white"/>
<path d="M14.0625 2.34375H0.937512C0.4697 2.34375 0.0984497 2.6925 0.0281372 3.14156L7.50001 8.06437L14.9719 3.14156C14.9016 2.6925 14.5303 2.34375 14.0625 2.34375Z" fill="white"/>
<path d="M9.08447 8.14327L7.7579 9.01702C7.67915 9.06858 7.59009 9.0939 7.50009 9.0939C7.41009 9.0939 7.32103 9.06858 7.24228 9.01702L5.91572 8.14233L0.0300903 11.8651C0.102278 12.3105 0.471653 12.6564 0.93759 12.6564H14.0626C14.5285 12.6564 14.8979 12.3105 14.9701 11.8651L9.08447 8.14327Z" fill="white"/>
</svg>
