<svg width="432" height="395" viewBox="0 0 432 395" fill="none" xmlns="http://www.w3.org/2000/svg">
<g clip-path="url(#clip0)">
<path d="M345.446 349.627C345.381 352.591 340.397 355.957 334.243 359.651C334.071 359.756 333.899 359.861 333.721 359.96C330.095 362.128 326.107 364.41 322.495 366.795C322.328 366.905 322.161 367.015 321.994 367.126C320.586 368.068 319.247 369.029 318.012 369.998C317.893 370.094 317.779 370.19 317.66 370.286C313.948 373.273 311.312 376.403 311.053 379.656C310.559 385.92 304.535 392.417 297.895 390.909C297.77 390.878 297.639 390.848 297.509 390.806C291.176 389.077 284.38 379.955 281.335 356.37C281.335 356.37 281.235 356.056 281.05 355.47C281.007 355.331 280.96 355.177 280.913 355.007C279.955 351.907 277.573 343.906 275.539 334.952C275.489 334.729 275.439 334.501 275.388 334.272C274.194 328.962 273.143 323.356 272.59 318.273C272.574 318.114 272.559 317.956 272.543 317.797C271.695 309.484 272.239 302.648 275.808 300.92C276.376 300.644 276.931 300.442 277.463 300.297C277.596 300.259 277.729 300.227 277.856 300.205C282.624 299.167 286.072 303.089 289.473 307.031C289.514 307.075 289.549 307.113 289.585 307.156C289.697 307.281 289.803 307.406 289.915 307.531C292.921 311.006 295.937 314.334 299.828 314.114C302.346 313.974 304.551 309.902 306.704 304.127C306.751 303.997 306.797 303.867 306.844 303.737C309.691 295.988 312.443 285.328 315.682 276.902C315.734 276.783 315.78 276.658 315.826 276.538C318.801 268.904 322.189 263.198 326.432 263.322C326.569 263.327 326.7 263.336 326.837 263.352L326.858 263.353C335.328 264.37 336.55 278.713 335.051 295.724C335.035 295.882 335.024 296.039 335.009 296.197C334.221 304.896 332.731 314.262 331.145 322.886C331.035 323.488 330.936 324.07 330.848 324.636C330.821 324.804 330.794 324.971 330.773 325.134C330.077 329.926 330.226 333.425 330.906 336.036C330.944 336.169 330.981 336.302 331.014 336.43C333.789 345.873 343.908 343.057 345.372 348.941C345.395 349.037 345.413 349.132 345.425 349.233C345.444 349.364 345.451 349.496 345.446 349.627Z" fill="#C5D4FF"/>
<path opacity="0.5" d="M322.84 353.022C323.656 354.135 327.222 358.468 334.243 359.651C334.071 359.756 333.899 359.861 333.721 359.96C326.643 358.601 323.124 354.112 322.446 353.151C319.686 354.047 317.018 355.026 314.555 356.006C314.533 356.047 314.516 356.073 314.516 356.079L314.449 356.045C306.863 359.063 301.229 362.021 300.751 362.274C299.972 367.338 299.387 372.25 298.957 376.656C299.719 376.092 301.809 374.604 304.479 373.13C305.488 371.668 310.679 365.175 322.496 366.796C322.329 366.906 322.162 367.016 321.995 367.127C312.019 365.916 307 370.619 305.311 372.69C309.196 370.652 314.276 368.939 318.013 370C317.894 370.096 317.78 370.192 317.661 370.288C313.835 369.209 308.668 371.313 304.726 373.476C304.67 373.558 304.637 373.615 304.631 373.62L304.548 373.57C301.368 375.332 299.032 377.091 298.902 377.187C298.351 382.954 298.054 387.807 297.895 390.911C297.77 390.88 297.639 390.85 297.509 390.808C297.731 386.321 298.254 378.287 299.4 369.12L299.282 369.174C299.232 369.083 294.49 359.847 281.05 355.472C281.007 355.333 280.96 355.179 280.913 355.009C285.114 356.349 288.483 358.161 291.143 360.033C289.787 349.316 279.921 339.04 275.54 334.954C275.49 334.731 275.44 334.503 275.389 334.274C279.599 338.138 290.355 349.019 291.586 360.348C296.465 363.893 298.826 367.583 299.458 368.674C300.54 360.138 302.166 350.661 304.607 342.171L304.585 342.202C304.467 342.098 299.203 337.47 293.34 330.646L293.261 330.659C293.261 330.654 293.253 330.601 293.244 330.532C290.817 327.704 288.297 324.503 285.995 321.094L286.004 321.295C285.983 321.3 285.524 321.31 284.761 321.284C282.382 321.203 277.039 320.735 272.592 318.275C272.576 318.116 272.561 317.958 272.545 317.799C277.95 320.903 284.874 320.919 285.87 320.906C281.508 314.407 277.973 307.162 277.464 300.299C277.597 300.261 277.73 300.229 277.857 300.207C278.586 310.47 286.198 321.623 293.147 329.817C292.685 326.376 290.838 312.749 289.474 307.033C289.515 307.077 289.55 307.115 289.586 307.158C289.698 307.283 289.804 307.408 289.916 307.533C291.381 313.69 293.351 328.328 293.619 330.371C299.011 336.642 303.892 341.056 304.721 341.79C305.491 339.155 306.337 336.618 307.272 334.237C308.877 330.15 310.614 326.031 312.3 322.052C312.965 320.478 313.631 318.894 314.296 317.309C314.441 311.381 309.602 306.509 306.706 304.129C306.753 303.999 306.799 303.869 306.846 303.739C309.64 306.011 314.34 310.656 314.675 316.4C318.563 307.043 322.259 297.426 324.464 287.032C324.265 286.229 322.125 278.242 315.684 276.904C315.736 276.785 315.782 276.66 315.828 276.54C321.52 277.752 323.937 283.952 324.64 286.2C326.109 279.005 326.847 271.437 326.434 263.324C326.571 263.329 326.702 263.338 326.839 263.354C327.53 277.194 324.887 289.455 321.01 300.957C322.54 300.588 329.562 298.799 335.053 295.725C335.037 295.883 335.026 296.04 335.011 296.198C329.109 299.437 321.607 301.23 320.864 301.4C319.001 306.869 316.87 312.171 314.689 317.392C314.688 317.434 314.692 317.471 314.69 317.513L314.638 317.511C313.983 319.08 313.324 320.644 312.664 322.207C311.707 324.466 310.737 326.773 309.778 329.095C311.759 329.094 323.707 328.876 330.85 324.636C330.823 324.804 330.796 324.971 330.775 325.134C323.278 329.404 310.992 329.489 309.617 329.49C308.945 331.116 308.278 332.753 307.642 334.381C304.468 342.456 302.3 352.362 300.829 361.791C302.095 361.128 307.378 358.437 314.28 355.696C315.242 353.911 322.533 340.882 330.909 336.036C330.947 336.169 330.984 336.302 331.017 336.43C323.247 340.986 316.418 352.666 314.858 355.469C324.173 351.804 336.265 348.16 345.428 349.233C345.45 349.365 345.456 349.497 345.451 349.629C338.75 348.824 330.453 350.584 322.84 353.022Z" fill="url(#paint0_linear)"/>
<path d="M309.761 330.445C307.776 326.271 304.24 325.54 304.24 325.54C305.067 329.639 309.761 330.445 309.761 330.445ZM301.082 334.472C304.19 334.603 304.939 331.154 304.939 331.154C301.74 331.897 301.082 334.472 301.082 334.472ZM313.328 324.551C311.844 318.118 306.668 316.79 306.668 316.79C306.396 323.037 313.328 324.551 313.328 324.551ZM286.463 320.344C282.078 318.744 279.296 321.3 279.296 321.3C282.894 323.869 286.463 320.344 286.463 320.344ZM298.953 318.307C295.289 321.199 296.004 324.908 296.004 324.908C300.079 323.196 298.953 318.307 298.953 318.307ZM303.318 324.235C299.523 325.994 299.832 330.745 299.832 330.745C303.43 327.844 303.318 324.235 303.318 324.235ZM291.707 315.878C289.839 318.58 291.086 320.928 291.086 320.928C293.474 318.934 291.707 315.878 291.707 315.878ZM335.801 293.514C333.832 295.923 336.144 298.59 336.144 298.59C337.468 295.585 335.801 293.514 335.801 293.514ZM344.847 295.955C340.214 295.385 338.08 298.502 338.08 298.502C342.164 300.194 344.847 295.955 344.847 295.955ZM331.495 293.701C329.234 297.219 332.041 301.066 332.041 301.066C333.524 296.688 331.495 293.701 331.495 293.701ZM317.851 317.58C317.561 310.985 312.714 308.737 312.714 308.737C311.31 314.831 317.851 317.58 317.851 317.58ZM322.494 310.874C320.509 306.7 316.973 305.969 316.973 305.969C317.801 310.068 322.494 310.874 322.494 310.874ZM329.366 304.19C328.723 299.613 325.569 297.856 325.569 297.856C325.13 302.015 329.366 304.19 329.366 304.19ZM325.885 307.917C325.595 301.322 320.747 299.074 320.747 299.074C319.344 305.167 325.885 307.917 325.885 307.917ZM319.92 336.003C316.182 333.284 312.727 334.331 312.727 334.331C315.412 337.538 319.92 336.003 319.92 336.003ZM317.54 327.963C320.254 331.452 324.681 329.093 324.681 329.093C320.936 326.308 317.54 327.963 317.54 327.963ZM330.288 309.302C332.973 312.508 337.481 310.974 337.481 310.974C333.744 308.255 330.288 309.302 330.288 309.302ZM320.827 321.018C323.979 326.418 330.628 323.939 330.628 323.939C325.898 319.334 320.827 321.018 320.827 321.018ZM325.309 314.315C328.461 319.715 335.109 317.236 335.109 317.236C330.379 312.631 325.309 314.315 325.309 314.315ZM290.398 325.092C285.759 324.578 283.663 327.721 283.663 327.721C287.767 329.363 290.398 325.092 290.398 325.092ZM338.944 301.776C341.477 303.581 343.986 301.099 343.986 301.099C340.9 299.976 338.944 301.776 338.944 301.776ZM334.68 304.702C335.403 307.728 338.925 307.506 338.925 307.506C337.337 304.631 334.68 304.702 334.68 304.702ZM289.594 337.121C293.698 338.763 296.329 334.492 296.329 334.492C291.69 333.979 289.594 337.121 289.594 337.121ZM309.567 340.727C313.92 345.216 319.782 341.218 319.782 341.218C314.087 337.878 309.567 340.727 309.567 340.727ZM290.06 341.049C293.374 343.975 297.287 340.837 297.287 340.837C293.091 338.794 290.06 341.049 290.06 341.049ZM293.472 329.232C290.3 328.378 288.506 330.339 288.506 330.339C291.184 331.921 293.472 329.232 293.472 329.232ZM297.819 348.16C293.621 343.065 288.396 344.185 288.396 344.185C290.94 349.898 297.819 348.16 297.819 348.16ZM336.696 300.979L336.318 300.494C318.82 314.126 308.27 334.338 302.501 348.893C301.756 350.773 301.071 352.608 300.439 354.385C300.615 351.538 300.73 346.658 300.021 341.465C298.552 330.712 294.228 323.517 287.513 320.66L287.272 321.227C302.445 327.684 299.874 354.465 299.628 356.72C295.58 368.661 294.106 377.391 294.089 377.496L294.696 377.596C294.713 377.492 296.177 368.822 300.201 356.948L300.222 356.95C300.223 356.946 300.227 356.912 300.234 356.851C301.068 354.393 302.01 351.803 303.073 349.12C308.813 334.635 319.307 314.525 336.696 300.979Z" fill="#275291"/>
<path d="M363.354 133.877C338.632 144.253 338.669 161.682 331.635 159.018C331.271 158.88 330.957 158.725 330.676 158.531C325.819 155.241 333.706 144.178 324.927 120.119C319.384 104.892 308.332 77.021 318.327 70.386C326.885 64.714 331.947 88.876 344.483 81.697C353.596 76.481 334.285 63.419 341.686 56.842C349.883 49.556 356.338 68.133 362.592 60.124C368.829 52.122 365.54 34.955 374.454 36.749C374.594 36.776 374.728 36.815 374.851 36.848C383.246 38.958 380.042 52.082 377.519 60.58C374.958 69.212 373.611 71.656 376.325 72.23C379.039 72.803 390.969 66.371 393.101 74.7C395.228 83.04 373.331 89.361 369.741 100.301C366.146 111.253 385.344 99.53 384.456 110.842C383.937 117.345 375.637 128.734 363.354 133.877Z" fill="#C5D4FF"/>
<path d="M374.799 113.33L348.208 120.947L358.401 92.4689L358.416 92.4989L378.138 81.3859L359.265 90.0529L371.169 56.7949L363.252 75.9219L352.91 66.4189L362.508 77.7219L350.43 106.903L327.589 87.7239L349.725 108.607L334.646 145.415L338.136 146.761L347.464 123.024L374.799 113.33Z" fill="#E3EBFF"/>
<path d="M323.137 124.002C327.053 123.681 348.868 121.52 345.469 113.41C342.21 105.633 327.184 119.399 323.433 123.007C325.135 117.147 326.535 111.613 327.687 106.374C333.204 105.857 352.354 103.496 349.154 95.859C346.128 88.638 332.958 99.989 328.087 104.538C329.18 99.371 330.02 94.51 330.647 89.936C334.991 87.925 353.486 78.845 347.708 72.556C342.474 66.859 334.081 81.574 330.951 87.648C331.694 81.668 332.064 76.21 332.153 71.233C336.279 68.507 352.984 56.886 346.375 51.557C340.47 46.794 334.473 61.899 332.175 68.588C332.161 61.653 331.591 55.726 330.73 50.717C334.292 46.845 347.308 31.917 339.717 28.362C333.142 25.283 330.824 39.897 330.078 47.334C329.873 46.377 329.659 45.453 329.436 44.574C328.413 40.539 327.192 37.119 325.919 34.203C328.232 30.163 338.178 11.88 329.784 10.094C322.302 8.50202 323.868 24.966 324.841 31.874C321.183 24.454 317.408 21.111 316.659 20.499C315.711 14.055 312.508 -2.90398 305.397 0.42802C298.217 3.79302 310.497 16.76 315.114 21.288C315.156 21.489 315.257 21.68 315.433 21.816C315.489 21.86 319.468 25.043 323.304 32.861C318.336 28.435 305.248 17.742 301.951 24.785C298.299 32.587 319.541 34.391 324.162 34.69C325.465 37.619 326.716 41.1 327.748 45.218C328.086 46.566 328.403 48.013 328.696 49.548C324.048 45.483 310.061 34.112 306.777 41.426C303.296 49.179 323.956 50.713 328.953 50.97C329.867 56.26 330.449 62.609 330.376 70.125C326.232 66.441 311.448 54.051 308.046 61.599C304.515 69.434 325.674 70.945 330.365 71.182C330.272 76.379 329.862 82.127 329.039 88.447C325.331 84.409 311.804 70.497 307.649 77.685C303.344 85.132 324.284 88.763 328.903 89.466C328.227 94.44 327.292 99.766 326.052 105.461C322.876 101.605 309.615 86.279 305.014 93.394C300.268 100.733 321.764 105.439 325.876 106.263C324.735 111.416 323.354 116.857 321.678 122.618C318.443 118.696 305.255 103.499 300.671 110.589C295.959 117.876 317.107 122.564 321.434 123.438C320.334 127.179 319.121 131.042 317.772 135.046C317.63 135.467 317.818 135.919 318.195 136.122C318.239 136.146 318.286 136.167 318.335 136.183C318.804 136.342 319.313 136.089 319.472 135.62C320.821 131.617 322.034 127.75 323.137 124.002Z" fill="#EA5E75"/>
<path d="M302.098 325.33C301.975 324.221 301.796 323.124 301.572 322.038C298.414 306.977 285.772 295.264 270.263 293.506C257.374 292.05 245.65 297.448 238.271 306.63C231.687 314.827 228.585 326.036 231.239 338.04C234.139 351.119 244.475 361.466 257.554 364.355C283.006 369.987 304.853 349.73 302.098 325.33ZM265.694 48.339C215.471 48.339 179.661 75.505 179.246 132.312H231.529C229.468 108.438 242.637 94.855 265.694 94.855C281.741 94.855 298.213 101.854 298.213 123.667C298.213 152.894 239.346 150.833 239.346 210.943V272.274H292.043V210.943C292.043 182.534 350.496 172.243 350.496 123.667C350.495 71.799 308.089 48.339 265.694 48.339Z" fill="#1B5DE1"/>
<path d="M257.852 48.339C207.632 48.339 171.822 75.509 171.412 132.309H223.692C221.632 108.439 234.802 94.859 257.852 94.859C273.902 94.859 290.372 101.849 290.372 123.669C290.372 142.169 266.782 148.129 249.472 165.259C239.432 175.189 231.502 188.879 231.502 210.939V272.279H284.202V210.939C284.202 182.539 342.662 172.239 342.662 123.669C342.662 71.799 300.252 48.339 257.852 48.339ZM294.262 325.329C294.132 324.219 293.962 323.119 293.732 322.039C290.752 307.859 279.372 296.639 265.102 293.919C264.222 293.749 263.332 293.609 262.422 293.509C257.902 292.999 253.532 293.329 249.442 294.369C241.852 296.289 235.222 300.659 230.432 306.629C223.852 314.829 220.742 326.039 223.402 338.039C226.302 351.119 236.632 361.469 249.712 364.359C275.172 369.989 297.012 349.729 294.262 325.329Z" fill="#1A66FF"/>
<path d="M147.954 153.814H46.197V212.282H147.954V153.814Z" fill="#EFDFE3"/>
<path d="M115.259 187.533C117.736 187.533 119.744 185.525 119.744 183.048C119.744 180.571 117.736 178.563 115.259 178.563C112.782 178.563 110.774 180.571 110.774 183.048C110.774 185.525 112.782 187.533 115.259 187.533Z" fill="#F9FBFC"/>
<path d="M97.075 187.533C99.552 187.533 101.56 185.525 101.56 183.048C101.56 180.571 99.552 178.563 97.075 178.563C94.598 178.563 92.59 180.571 92.59 183.048C92.59 185.525 94.598 187.533 97.075 187.533Z" fill="#F9FBFC"/>
<path d="M78.892 187.533C81.369 187.533 83.377 185.525 83.377 183.048C83.377 180.571 81.369 178.563 78.892 178.563C76.415 178.563 74.407 180.571 74.407 183.048C74.407 185.525 76.415 187.533 78.892 187.533Z" fill="#F9FBFC"/>
<path d="M147.954 212.282V230.459L127.153 209.658L147.954 212.282Z" fill="#EFDFE3"/>
<path d="M401.495 364.541H30.504V394.76H401.495V364.541Z" fill="#F9FBFC"/>
<path d="M427.342 373.857H4.658C2.085 373.857 0 371.771 0 369.199C0 366.626 2.086 364.541 4.658 364.541H427.342C429.915 364.541 432 366.627 432 369.199C432 371.772 429.915 373.857 427.342 373.857Z" fill="#EFDFE3"/>
<path d="M146.239 183.584C156.812 183.584 165.384 175.013 165.384 164.439C165.384 153.866 156.812 145.294 146.239 145.294C135.665 145.294 127.094 153.866 127.094 164.439C127.094 175.013 135.665 183.584 146.239 183.584Z" fill="#1A66FF"/>
<path d="M140.153 170.939C139.997 170.939 139.84 170.912 139.689 170.858C139.316 170.724 139.019 170.435 138.875 170.066L135.058 160.287C134.782 159.581 135.131 158.786 135.837 158.511C136.539 158.237 137.337 158.584 137.612 159.29L140.857 167.603L157.848 158.114C158.508 157.745 159.344 157.982 159.713 158.643C160.082 159.304 159.846 160.14 159.184 160.509L140.819 170.765C140.614 170.88 140.384 170.939 140.153 170.939Z" fill="white"/>
<path d="M380.275 153.341L382.946 160.611L390.216 163.281L382.946 165.952L380.275 173.222L377.605 165.952L370.335 163.281L377.605 160.611L380.275 153.341Z" fill="#EFDFE3"/>
<path d="M205.88 12.686L208.551 19.955L215.821 22.626L208.551 25.297L205.88 32.566L203.209 25.297L195.94 22.626L203.209 19.955L205.88 12.686Z" fill="#EFDFE3"/>
<path d="M189.578 275.07C188.747 274.558 187.749 274.363 186.788 274.534C178.784 275.959 138.428 283.365 137.346 287.998C136.145 293.142 189.909 285.541 191.093 282.997C192.181 280.659 194.32 277.989 189.578 275.07Z" fill="#E8B28E"/>
<path d="M209.445 236.533C211.162 238.028 211.668 240.482 211.039 242.669C208.217 252.494 198.216 285.269 190.812 283.725C182.109 281.91 192.714 253.359 196.832 245.479C200.264 238.913 205.295 232.919 209.445 236.533Z" fill="#F2BC97"/>
<path d="M212.057 244.773C211.184 247.628 210.008 249.991 210.008 249.991C210.008 249.991 199.538 281.3 193.861 283.786C188.184 286.272 163.694 288.579 163.694 288.579L163.481 287.191L162.182 278.826L186.314 273.149C186.314 273.149 192.585 252.545 195.015 246.711C198.218 239.007 203.615 234.371 209.292 234.908C213.949 235.345 213.322 240.585 212.057 244.773Z" fill="#1A66FF"/>
<path opacity="0.3" d="M212.057 244.773C211.184 247.628 210.008 249.991 210.008 249.991C210.008 249.991 199.538 281.3 193.861 283.786C188.184 286.272 163.694 288.579 163.694 288.579L163.481 287.191L163.548 287.157C168.587 285.141 173.817 283.697 179.136 282.644C184.701 281.547 186.717 279.654 189.841 270.942C194.007 259.33 201.028 239.845 201.028 239.845L212.057 244.773Z" fill="#1A66FF"/>
<path d="M216.159 348.429C217.303 353.51 213.628 358.654 208.218 359.637C203.913 360.419 198.085 360.853 190.622 360.126C171.989 358.311 149.802 361.082 146.434 354.501C143.067 347.919 154.471 341.387 172.736 339.793C189.245 338.351 208.59 332.386 211.995 336.734C213.719 338.936 215.158 343.984 216.159 348.429Z" fill="#F2BC97"/>
<path d="M195.327 340.568C192.541 344.968 186.305 346.006 181.785 342.873C178.189 340.381 173.763 336.565 169.002 330.771C157.116 316.307 139.473 302.571 141.749 295.536C144.024 288.502 156.836 291.249 170.874 303.042C183.563 313.701 201.326 323.874 200.657 329.355C200.318 332.133 197.765 336.719 195.327 340.568Z" fill="#F2BC97"/>
<path d="M234.006 215.54C233.914 221.687 227.749 231.758 227.749 231.758L229.572 238.136L227.929 244.18L218.058 248.98L215.401 239.061L215.312 237L215.12 232.635C215.12 232.635 209.347 231.719 208.839 227.002C208.352 222.264 203.369 205.113 216.87 203.074C230.371 201.036 234.127 209.396 234.006 215.54Z" fill="#F2BC97"/>
<path opacity="0.5" d="M219.28 232.499C219.118 232.554 216.16 233.604 215.312 237L215.12 232.635C215.119 232.636 215.945 232.689 219.28 232.499Z" fill="#F2BC97"/>
<path d="M207.508 214.62C207.508 214.62 221.397 212.363 222.338 216.266C223.279 220.169 222.05 223.3 223.102 223.637C224.154 223.975 226.722 217.752 228.713 219.98C230.704 222.207 226.629 227.249 228.087 230.998C228.623 232.376 235.29 219.887 235.175 213.808C235.059 207.729 231.065 200.908 221.476 200.535C217.832 200.393 207.36 196.899 204.812 198.927C200.655 202.233 206.075 211.984 207.508 214.62Z" fill="#275291"/>
<path d="M147.052 291.011C163.88 294.199 103.707 349.894 87.577 360.124C71.447 370.353 89.072 348.188 108.859 325.568C128.646 302.948 140.431 289.757 147.052 291.011Z" fill="#F2BC97"/>
<path d="M81.679 355.272L88.917 347.418L94.841 355.332L87.988 361.177" fill="#F2BC97"/>
<path d="M81.679 355.272C81.679 355.272 77.649 355.944 70.169 354.702C62.689 353.459 62.327 351.628 60.988 352.701C59.648 353.774 78.012 371.102 78.012 371.102L87.988 361.178C87.988 361.177 81.948 355.023 81.679 355.272Z" fill="#275291"/>
<path d="M151.272 348.967C162.471 361.925 81.029 367.003 62.035 364.989C43.041 362.975 70.312 357.71 99.873 352.293C129.435 346.875 146.866 343.869 151.272 348.967Z" fill="#F2BC97"/>
<path d="M63.053 367.154L73.296 366.711L71.506 356.755L61.941 358.584" fill="#F2BC97"/>
<path d="M61.941 358.584C61.941 358.584 58.404 356.54 53.422 350.823C48.44 345.106 49.326 343.464 47.61 343.439C45.894 343.415 49.043 368.466 49.043 368.466L63.053 367.153C63.053 367.154 62.307 358.563 61.941 358.584Z" fill="#275291"/>
<path d="M215.159 331.495L177.027 348.225L169.188 339.664L147.065 315.535C147.065 315.535 132.756 329.587 123.719 337.071C122.484 338.098 121.175 339.138 119.83 340.165C109.655 348.004 97.425 355.55 97.425 355.55L86.724 348.249C86.724 348.249 130.078 289.474 147.713 288.948C158.609 288.63 182.347 309.579 182.347 309.579L209.9 327.984L210.56 328.424L215.159 331.495Z" fill="#EA5E75"/>
<path opacity="0.5" d="M210.818 328.267L210.561 328.426L185.625 343.26L169.188 339.665L147.065 315.536C147.065 315.536 132.756 329.588 123.719 337.072C122.484 338.099 121.175 339.139 119.83 340.166C134.738 326.787 145.108 311.048 147.811 310.558C151.321 309.922 160.102 321.723 169.824 327.618C179.559 333.525 186.297 324.433 186.297 324.433L209.9 327.984L210.818 328.267Z" fill="#EA5E75"/>
<path d="M194.993 366.056C171.781 368.135 148.496 364.295 147.714 364.295C144.522 364.295 133.124 366.154 113.386 367.903C81.5161 370.728 67.9411 368.845 67.9411 368.845L67.9291 368.539L67.8191 365.775L67.4771 357.006L201.403 331.422L214.574 341.413L221.667 346.782C221.665 346.782 222.374 363.61 194.993 366.056Z" fill="#EA5E75"/>
<path opacity="0.5" d="M194.993 366.056C171.781 368.135 148.496 364.295 147.714 364.295C144.522 364.295 133.124 366.154 113.386 367.903C81.516 370.728 67.941 368.845 67.941 368.845L67.929 368.539C116.774 368.845 141.159 360.675 148.216 359.758C155.321 358.816 187.925 361.91 198.736 358.682C209.559 355.429 206 344.606 206 344.606L214.573 341.414L221.666 346.783C221.665 346.782 222.374 363.61 194.993 366.056Z" fill="#EA5E75"/>
<path d="M232.616 287.572L232.549 287.751C230.376 295.377 228.406 301.793 227.555 304.525C226.715 307.257 226.099 310.09 225.629 312.968C224.89 317.324 224.465 321.758 223.938 326.058C223.356 330.616 223.244 334.871 223.098 336.394C222.997 337.536 223.176 346.741 221.676 346.797C218.182 346.853 213.479 346.54 210.052 345.935C207.611 345.498 205.114 344.826 203.322 343.192C199.694 339.877 199.84 333.719 196.111 330.55C193.491 328.355 189.762 328.254 186.582 327.056C183.458 325.858 180.86 323.618 178.352 321.423C177.758 320.941 177.187 320.438 176.672 319.889C175.978 319.161 174.858 317.929 174.97 316.91L175.071 316.518C175.183 316.283 175.62 315.992 175.788 315.801C176.706 314.815 177.501 313.685 178.218 312.554C180.054 309.643 181.454 306.474 182.585 303.204C183.391 300.942 184.052 298.635 184.634 296.34C185.093 294.56 185.575 292.746 186.034 290.864C186.045 290.797 186.068 290.741 186.079 290.674C186.169 290.327 186.258 289.968 186.348 289.61L186.964 287.314C187.289 286.026 187.636 284.75 187.961 283.473C188.375 281.838 188.812 280.181 189.249 278.557C189.316 278.255 189.395 277.963 189.462 277.672C189.809 276.295 190.19 274.917 190.548 273.585C191.309 270.718 192.049 267.885 192.776 265.198C195.631 254.526 198.397 245.893 199.651 242.657C200.939 239.343 202.686 237.215 204.881 236.062C205.027 235.995 205.183 235.905 205.318 235.872C206.841 235.144 208.465 234.786 209.898 234.663C210.278 234.618 210.637 234.585 210.962 234.573C211.746 234.55 212.463 234.584 213.056 234.663C214.433 234.786 215.262 235.032 215.262 235.032C215.262 235.032 214.657 239.925 219.103 241.135C224.153 242.535 229.584 238.134 229.584 238.134C229.584 238.134 232.171 239.075 235.205 240.542C236.739 241.259 244.085 244.741 244.846 248.414C246.121 254.549 237.342 271.032 232.616 287.572Z" fill="#275291"/>
<path opacity="0.3" d="M238.529 268.916C238.529 268.916 227.578 293.775 220.344 296.082C214.476 297.952 192.327 297.717 182.585 303.204C183.391 300.942 184.052 298.635 184.634 296.34C185.093 294.56 185.575 292.746 186.034 290.864C186.045 290.797 186.068 290.741 186.079 290.674L214.981 285.232L238.529 268.916Z" fill="#275291"/>
<path opacity="0.3" d="M225.624 312.967C224.89 317.321 224.462 321.76 223.936 326.053C223.349 330.615 223.239 334.871 223.092 336.399C222.994 337.536 223.178 346.745 221.673 346.794C218.175 346.855 213.479 346.537 210.043 345.938C207.609 345.498 205.114 344.825 203.317 343.186C199.685 339.872 199.832 333.72 196.102 330.553C193.485 328.352 189.755 328.254 186.575 327.055C183.457 325.857 180.852 323.618 178.345 321.417C177.758 320.94 177.183 320.439 176.67 319.888C175.973 319.154 174.86 317.931 174.97 316.904L175.068 316.513C175.067 316.514 213.994 333.195 225.624 312.967Z" fill="#275291"/>
<path d="M243.955 247.268C245.542 249.205 246.148 251.641 245.064 253.899C240.198 264.038 223.329 297.754 215.581 294.719C206.473 291.151 223.222 262.129 229.136 254.338C234.066 247.845 240.117 242.586 243.955 247.268Z" fill="#F2BC97"/>
<path d="M117.344 261.906L128.093 289.961C128.093 289.961 157.357 292.286 157.555 292.522L145.978 262.486C145.978 262.486 116.91 261.868 117.344 261.906Z" fill="#1A66FF"/>
<path d="M178.984 291.224L157.481 292.42L156.786 290.617L155.995 288.571L178.76 287.315L178.878 289.276L178.984 291.224Z" fill="#275291"/>
<path d="M145.978 262.486L147.061 262.58L158.386 292.376L157.487 292.415L145.978 262.486Z" fill="#275291"/>
<path d="M134.385 277.071C134.831 278.289 135.995 278.982 136.984 278.619C137.973 278.256 138.414 276.976 137.968 275.758C137.522 274.54 136.358 273.847 135.369 274.21C134.379 274.572 133.939 275.853 134.385 277.071Z" fill="#4265E5"/>
<path d="M221.026 291.043C220.802 291.693 220.421 292.286 219.985 292.846C219.57 293.361 219.145 293.865 218.764 294.346C217.868 295.511 202.964 294.917 188.776 293.405C186.984 293.215 185.204 293.013 183.468 292.8C183.289 292.778 183.11 292.755 182.931 292.733C178.34 292.151 174.062 291.456 170.647 290.717L170.322 290.65C168.71 290.292 167.489 289.967 166.604 289.631C166.593 289.631 166.593 289.631 166.582 289.631C164.801 288.981 164.387 288.332 164.79 287.515C165.731 285.533 172.908 284.391 183.345 284.189C183.681 284.189 184.006 284.178 184.342 284.178C186.044 284.156 187.78 284.144 189.527 284.133C200.848 284.111 212.348 284.57 216.324 284.76C217.343 284.805 218.317 285.23 219.056 285.947C219.157 286.059 219.269 286.16 219.37 286.283C221.261 288.232 221.474 289.744 221.026 291.043Z" fill="#F2BC97"/>
<path opacity="0.5" d="M242.772 261.581C242.772 261.581 225.617 293.752 218.641 295.051C211.665 296.361 183.39 293.517 183.39 293.517L183.468 292.8C183.289 292.778 183.11 292.755 182.931 292.733C178.34 292.151 174.062 291.456 170.647 290.717L170.322 290.65C168.71 290.292 167.489 289.967 166.604 289.631C167.511 289.721 174.779 290.426 183.625 291.176C197.902 292.352 216.3 293.617 218.865 292.464C219.548 292.162 220.265 291.691 221.026 291.042C225.012 287.716 230.107 279.867 237.33 267.762C244.72 255.366 244.62 248.233 244.44 246.497C248.82 250.663 242.772 261.581 242.772 261.581Z" fill="#F2BC97"/>
<path d="M242.772 261.581C242.772 261.581 225.617 293.752 218.641 295.051C211.665 296.361 183.39 293.517 183.39 293.517L183.468 292.8L183.625 291.176L184.342 284.177L184.454 283.113C184.454 283.113 211.777 283.113 212.258 282.99C212.728 282.867 223.131 261.58 226.569 256.496C229.424 252.252 234.855 245.018 240.32 244.94C241.417 244.929 242.515 245.197 243.601 245.847C243.915 246.037 244.195 246.25 244.441 246.497C244.699 246.732 244.912 247.001 245.079 247.281C248.148 251.884 242.772 261.581 242.772 261.581Z" fill="#1A66FF"/>
<path d="M169.61 287.281C169.61 287.281 167.932 283.754 164.335 283.308C160.709 282.858 158.383 284.231 157.485 285.329C156.718 286.268 156.461 288.317 157.403 287.954C158.345 287.591 160.866 286.019 161.965 287.512C164.349 290.753 167.847 289.086 167.847 289.086L169.61 287.281Z" fill="#F2BC97"/>
<path opacity="0.3" d="M244.808 246.893C244.698 246.754 244.576 246.621 244.441 246.498C244.195 246.252 243.915 246.039 243.601 245.848C242.515 245.198 241.417 244.93 240.32 244.941C245.023 246.318 243.243 253.418 243.243 253.418L243.27 253.408C242.208 256.802 240.264 261.398 236.741 267.307C234.686 270.751 230.337 273.999 228.671 276.801C224.482 283.847 223.879 288.663 221.026 291.043C220.265 291.693 219.548 292.163 218.865 292.465C216.301 293.618 197.902 292.353 183.625 291.177L183.468 292.801L183.39 293.518C183.39 293.518 211.665 296.362 218.641 295.052C225.617 293.753 242.772 261.582 242.772 261.582C242.772 261.582 248.459 251.312 244.808 246.893Z" fill="#1A66FF"/>
<path d="M356.994 220.302H315.127C313.378 220.302 311.961 218.884 311.961 217.136C311.961 215.387 313.379 213.97 315.127 213.97H356.994C358.743 213.97 360.16 215.388 360.16 217.136C360.161 218.884 358.743 220.302 356.994 220.302Z" fill="#EFDFE3"/>
<path d="M151.489 92.354H109.622C107.873 92.354 106.456 90.936 106.456 89.188C106.456 87.439 107.874 86.022 109.622 86.022H151.489C153.238 86.022 154.655 87.44 154.655 89.188C154.655 90.936 153.237 92.354 151.489 92.354Z" fill="#EFDFE3"/>
<path opacity="0.5" d="M262.422 293.509C263.332 293.609 264.222 293.749 265.102 293.919C260.062 294.189 254.762 294.329 249.442 294.369C253.532 293.329 257.902 292.999 262.422 293.509Z" fill="#DCE8EF"/>
</g>
<defs>
<linearGradient id="paint0_linear" x1="272.27" y1="325.751" x2="346.177" y2="328.28" gradientUnits="userSpaceOnUse">
<stop stop-color="#A8ACF3"/>
<stop offset="0.8065" stop-color="#A9A9F0"/>
<stop offset="1" stop-color="#B2B1F0"/>
</linearGradient>
<clipPath id="clip0">
<rect width="432" height="394.76" fill="white"/>
</clipPath>
</defs>
</svg>
