<svg width="24" height="24" viewBox="0 0 24 24" fill="none" xmlns="http://www.w3.org/2000/svg">
<path d="M15.9396 4H9.06036C6.82144 4 5 5.82144 5 8.06036V14.9397C5 17.1785 6.82144 19 9.06036 19H15.9397C18.1785 19 20 17.1785 20 14.9397V8.06036C20 5.82144 18.1785 4 15.9396 4V4ZM12.5 15.6014C10.2384 15.6014 8.39855 13.7616 8.39855 11.5C8.39855 9.23841 10.2384 7.39855 12.5 7.39855C14.7616 7.39855 16.6014 9.23841 16.6014 11.5C16.6014 13.7616 14.7616 15.6014 12.5 15.6014ZM16.6995 8.3658C16.0312 8.3658 15.4876 7.8222 15.4876 7.15387C15.4876 6.48554 16.0312 5.94183 16.6995 5.94183C17.3678 5.94183 17.9115 6.48554 17.9115 7.15387C17.9115 7.8222 17.3678 8.3658 16.6995 8.3658Z" fill="white"/>
<path d="M12.5 8.27783C10.7234 8.27783 9.27789 9.72322 9.27789 11.4999C9.27789 13.2765 10.7234 14.722 12.5 14.722C14.2767 14.722 15.722 13.2765 15.722 11.4999C15.722 9.72322 14.2767 8.27783 12.5 8.27783Z" fill="white"/>
<path d="M16.6995 6.82129C16.5162 6.82129 16.3669 6.97052 16.3669 7.15385C16.3669 7.33719 16.5162 7.48642 16.6995 7.48642C16.883 7.48642 17.0322 7.3373 17.0322 7.15385C17.0322 6.97041 16.883 6.82129 16.6995 6.82129Z" fill="white"/>
</svg>
