<svg width="15" height="15" viewBox="0 0 15 15" fill="none" xmlns="http://www.w3.org/2000/svg">
<path d="M5.6253 0C5.6253 0 10.8753 0.615 8.30936 9.42469C7.90436 10.8178 6.57499 15 3.72686 15C0.879674 14.9119 2.16405 11.9353 2.16405 11.9353C2.16405 11.9353 2.85217 10.0931 4.39061 9.43781C5.4003 9.8775 6.72311 10.4297 6.69311 10.4006C6.72311 10.4297 2.97499 8.36438 2.97499 4.6875C2.97499 1.65469 3.72686 0 5.6253 0Z" fill="#03A9F4"/>
<path d="M12.8208 4.22901C13.5229 4.43713 13.1423 7.22526 10.2698 10.3124C10.1339 12.0899 9.12419 14.7262 7.80982 14.4918C6.45607 14.0624 8.36763 10.3443 8.80825 9.34119C9.24888 8.33807 11.2758 3.77057 12.8208 4.22901Z" fill="#03A9F4"/>
</svg>
