<svg width="420" height="420" viewBox="0 0 420 420" fill="none" xmlns="http://www.w3.org/2000/svg">
<path d="M3.44639 6.88525C5.34978 6.88525 6.89278 5.34393 6.89278 3.44262C6.89278 1.54131 5.34978 0 3.44639 0C1.543 0 0 1.54131 0 3.44262C0 5.34393 1.543 6.88525 3.44639 6.88525Z" fill="#DAEBFA"/>
<path d="M41.0014 6.88525C42.9048 6.88525 44.4478 5.34393 44.4478 3.44262C44.4478 1.54131 42.9048 0 41.0014 0C39.098 0 37.555 1.54131 37.555 3.44262C37.555 5.34393 39.098 6.88525 41.0014 6.88525Z" fill="#DAEBFA"/>
<path d="M78.557 6.88525C80.4604 6.88525 82.0033 5.34393 82.0033 3.44262C82.0033 1.54131 80.4604 0 78.557 0C76.6536 0 75.1106 1.54131 75.1106 3.44262C75.1106 5.34393 76.6536 6.88525 78.557 6.88525Z" fill="#DAEBFA"/>
<path d="M116.112 6.88525C118.015 6.88525 119.558 5.34393 119.558 3.44262C119.558 1.54131 118.015 0 116.112 0C114.209 0 112.666 1.54131 112.666 3.44262C112.666 5.34393 114.209 6.88525 116.112 6.88525Z" fill="#DAEBFA"/>
<path d="M153.667 6.88525C155.571 6.88525 157.114 5.34393 157.114 3.44262C157.114 1.54131 155.571 0 153.667 0C151.764 0 150.221 1.54131 150.221 3.44262C150.221 5.34393 151.764 6.88525 153.667 6.88525Z" fill="#DAEBFA"/>
<path d="M191.222 6.88525C193.126 6.88525 194.669 5.34393 194.669 3.44262C194.669 1.54131 193.126 0 191.222 0C189.319 0 187.776 1.54131 187.776 3.44262C187.776 5.34393 189.319 6.88525 191.222 6.88525Z" fill="#DAEBFA"/>
<path d="M228.778 6.88525C230.681 6.88525 232.224 5.34393 232.224 3.44262C232.224 1.54131 230.681 0 228.778 0C226.874 0 225.331 1.54131 225.331 3.44262C225.331 5.34393 226.874 6.88525 228.778 6.88525Z" fill="#DAEBFA"/>
<path d="M266.333 6.88525C268.236 6.88525 269.779 5.34393 269.779 3.44262C269.779 1.54131 268.236 0 266.333 0C264.429 0 262.886 1.54131 262.886 3.44262C262.886 5.34393 264.429 6.88525 266.333 6.88525Z" fill="#DAEBFA"/>
<path d="M303.888 6.88525C305.791 6.88525 307.334 5.34393 307.334 3.44262C307.334 1.54131 305.791 0 303.888 0C301.985 0 300.442 1.54131 300.442 3.44262C300.442 5.34393 301.985 6.88525 303.888 6.88525Z" fill="#DAEBFA"/>
<path d="M341.443 6.88525C343.346 6.88525 344.889 5.34393 344.889 3.44262C344.889 1.54131 343.346 0 341.443 0C339.54 0 337.997 1.54131 337.997 3.44262C337.997 5.34393 339.54 6.88525 341.443 6.88525Z" fill="#DAEBFA"/>
<path d="M378.999 6.88525C380.902 6.88525 382.445 5.34393 382.445 3.44262C382.445 1.54131 380.902 0 378.999 0C377.095 0 375.552 1.54131 375.552 3.44262C375.552 5.34393 377.095 6.88525 378.999 6.88525Z" fill="#DAEBFA"/>
<path d="M416.554 6.88525C418.457 6.88525 420 5.34393 420 3.44262C420 1.54131 418.457 0 416.554 0C414.65 0 413.107 1.54131 413.107 3.44262C413.107 5.34393 414.65 6.88525 416.554 6.88525Z" fill="#DAEBFA"/>
<path d="M3.44639 44.441C5.34978 44.441 6.89278 42.8997 6.89278 40.9984C6.89278 39.0971 5.34978 37.5557 3.44639 37.5557C1.543 37.5557 0 39.0971 0 40.9984C0 42.8997 1.543 44.441 3.44639 44.441Z" fill="#DAEBFA"/>
<path d="M41.0014 44.441C42.9048 44.441 44.4478 42.8997 44.4478 40.9984C44.4478 39.0971 42.9048 37.5557 41.0014 37.5557C39.098 37.5557 37.555 39.0971 37.555 40.9984C37.555 42.8997 39.098 44.441 41.0014 44.441Z" fill="#DAEBFA"/>
<path d="M78.557 44.441C80.4604 44.441 82.0033 42.8997 82.0033 40.9984C82.0033 39.0971 80.4604 37.5557 78.557 37.5557C76.6536 37.5557 75.1106 39.0971 75.1106 40.9984C75.1106 42.8997 76.6536 44.441 78.557 44.441Z" fill="#DAEBFA"/>
<path d="M116.112 44.441C118.015 44.441 119.558 42.8997 119.558 40.9984C119.558 39.0971 118.015 37.5557 116.112 37.5557C114.209 37.5557 112.666 39.0971 112.666 40.9984C112.666 42.8997 114.209 44.441 116.112 44.441Z" fill="#DAEBFA"/>
<path d="M153.667 44.441C155.571 44.441 157.114 42.8997 157.114 40.9984C157.114 39.0971 155.571 37.5557 153.667 37.5557C151.764 37.5557 150.221 39.0971 150.221 40.9984C150.221 42.8997 151.764 44.441 153.667 44.441Z" fill="#DAEBFA"/>
<path d="M191.222 44.441C193.126 44.441 194.669 42.8997 194.669 40.9984C194.669 39.0971 193.126 37.5557 191.222 37.5557C189.319 37.5557 187.776 39.0971 187.776 40.9984C187.776 42.8997 189.319 44.441 191.222 44.441Z" fill="#DAEBFA"/>
<path d="M228.778 44.441C230.681 44.441 232.224 42.8997 232.224 40.9984C232.224 39.0971 230.681 37.5557 228.778 37.5557C226.874 37.5557 225.331 39.0971 225.331 40.9984C225.331 42.8997 226.874 44.441 228.778 44.441Z" fill="#DAEBFA"/>
<path d="M266.333 44.441C268.236 44.441 269.779 42.8997 269.779 40.9984C269.779 39.0971 268.236 37.5557 266.333 37.5557C264.429 37.5557 262.886 39.0971 262.886 40.9984C262.886 42.8997 264.429 44.441 266.333 44.441Z" fill="#DAEBFA"/>
<path d="M303.888 44.441C305.791 44.441 307.334 42.8997 307.334 40.9984C307.334 39.0971 305.791 37.5557 303.888 37.5557C301.985 37.5557 300.442 39.0971 300.442 40.9984C300.442 42.8997 301.985 44.441 303.888 44.441Z" fill="#DAEBFA"/>
<path d="M341.443 44.441C343.346 44.441 344.889 42.8997 344.889 40.9984C344.889 39.0971 343.346 37.5557 341.443 37.5557C339.54 37.5557 337.997 39.0971 337.997 40.9984C337.997 42.8997 339.54 44.441 341.443 44.441Z" fill="#DAEBFA"/>
<path d="M378.999 44.441C380.902 44.441 382.445 42.8997 382.445 40.9984C382.445 39.0971 380.902 37.5557 378.999 37.5557C377.095 37.5557 375.552 39.0971 375.552 40.9984C375.552 42.8997 377.095 44.441 378.999 44.441Z" fill="#DAEBFA"/>
<path d="M416.554 44.441C418.457 44.441 420 42.8997 420 40.9984C420 39.0971 418.457 37.5557 416.554 37.5557C414.65 37.5557 413.107 39.0971 413.107 40.9984C413.107 42.8997 414.65 44.441 416.554 44.441Z" fill="#DAEBFA"/>
<path d="M3.44639 81.9969C5.34978 81.9969 6.89278 80.4556 6.89278 78.5542C6.89278 76.6529 5.34978 75.1116 3.44639 75.1116C1.543 75.1116 0 76.6529 0 78.5542C0 80.4556 1.543 81.9969 3.44639 81.9969Z" fill="#DAEBFA"/>
<path d="M41.0014 81.9969C42.9048 81.9969 44.4478 80.4556 44.4478 78.5542C44.4478 76.6529 42.9048 75.1116 41.0014 75.1116C39.098 75.1116 37.555 76.6529 37.555 78.5542C37.555 80.4556 39.098 81.9969 41.0014 81.9969Z" fill="#DAEBFA"/>
<path d="M78.557 81.9969C80.4604 81.9969 82.0033 80.4556 82.0033 78.5542C82.0033 76.6529 80.4604 75.1116 78.557 75.1116C76.6536 75.1116 75.1106 76.6529 75.1106 78.5542C75.1106 80.4556 76.6536 81.9969 78.557 81.9969Z" fill="#DAEBFA"/>
<path d="M116.112 81.9969C118.015 81.9969 119.558 80.4556 119.558 78.5542C119.558 76.6529 118.015 75.1116 116.112 75.1116C114.209 75.1116 112.666 76.6529 112.666 78.5542C112.666 80.4556 114.209 81.9969 116.112 81.9969Z" fill="#DAEBFA"/>
<path d="M153.667 81.9969C155.571 81.9969 157.114 80.4556 157.114 78.5542C157.114 76.6529 155.571 75.1116 153.667 75.1116C151.764 75.1116 150.221 76.6529 150.221 78.5542C150.221 80.4556 151.764 81.9969 153.667 81.9969Z" fill="#DAEBFA"/>
<path d="M191.222 81.9969C193.126 81.9969 194.669 80.4556 194.669 78.5542C194.669 76.6529 193.126 75.1116 191.222 75.1116C189.319 75.1116 187.776 76.6529 187.776 78.5542C187.776 80.4556 189.319 81.9969 191.222 81.9969Z" fill="#DAEBFA"/>
<path d="M228.778 81.9969C230.681 81.9969 232.224 80.4556 232.224 78.5542C232.224 76.6529 230.681 75.1116 228.778 75.1116C226.874 75.1116 225.331 76.6529 225.331 78.5542C225.331 80.4556 226.874 81.9969 228.778 81.9969Z" fill="#DAEBFA"/>
<path d="M266.333 81.9969C268.236 81.9969 269.779 80.4556 269.779 78.5542C269.779 76.6529 268.236 75.1116 266.333 75.1116C264.429 75.1116 262.886 76.6529 262.886 78.5542C262.886 80.4556 264.429 81.9969 266.333 81.9969Z" fill="#DAEBFA"/>
<path d="M303.888 81.9969C305.791 81.9969 307.334 80.4556 307.334 78.5542C307.334 76.6529 305.791 75.1116 303.888 75.1116C301.985 75.1116 300.442 76.6529 300.442 78.5542C300.442 80.4556 301.985 81.9969 303.888 81.9969Z" fill="#DAEBFA"/>
<path d="M341.443 81.9969C343.346 81.9969 344.889 80.4556 344.889 78.5542C344.889 76.6529 343.346 75.1116 341.443 75.1116C339.54 75.1116 337.997 76.6529 337.997 78.5542C337.997 80.4556 339.54 81.9969 341.443 81.9969Z" fill="#DAEBFA"/>
<path d="M378.999 81.9969C380.902 81.9969 382.445 80.4556 382.445 78.5542C382.445 76.6529 380.902 75.1116 378.999 75.1116C377.095 75.1116 375.552 76.6529 375.552 78.5542C375.552 80.4556 377.095 81.9969 378.999 81.9969Z" fill="#DAEBFA"/>
<path d="M416.554 81.9969C418.457 81.9969 420 80.4556 420 78.5542C420 76.6529 418.457 75.1116 416.554 75.1116C414.65 75.1116 413.107 76.6529 413.107 78.5542C413.107 80.4556 414.65 81.9969 416.554 81.9969Z" fill="#DAEBFA"/>
<path d="M3.44639 119.553C5.34978 119.553 6.89278 118.012 6.89278 116.11C6.89278 114.209 5.34978 112.668 3.44639 112.668C1.543 112.668 0 114.209 0 116.11C0 118.012 1.543 119.553 3.44639 119.553Z" fill="#DAEBFA"/>
<path d="M41.0014 119.553C42.9048 119.553 44.4478 118.012 44.4478 116.11C44.4478 114.209 42.9048 112.668 41.0014 112.668C39.098 112.668 37.555 114.209 37.555 116.11C37.555 118.012 39.098 119.553 41.0014 119.553Z" fill="#DAEBFA"/>
<path d="M78.557 119.553C80.4604 119.553 82.0033 118.012 82.0033 116.11C82.0033 114.209 80.4604 112.668 78.557 112.668C76.6536 112.668 75.1106 114.209 75.1106 116.11C75.1106 118.012 76.6536 119.553 78.557 119.553Z" fill="#DAEBFA"/>
<path d="M116.112 119.553C118.015 119.553 119.558 118.012 119.558 116.11C119.558 114.209 118.015 112.668 116.112 112.668C114.209 112.668 112.666 114.209 112.666 116.11C112.666 118.012 114.209 119.553 116.112 119.553Z" fill="#DAEBFA"/>
<path d="M153.667 119.553C155.571 119.553 157.114 118.012 157.114 116.11C157.114 114.209 155.571 112.668 153.667 112.668C151.764 112.668 150.221 114.209 150.221 116.11C150.221 118.012 151.764 119.553 153.667 119.553Z" fill="#DAEBFA"/>
<path d="M191.222 119.553C193.126 119.553 194.669 118.012 194.669 116.11C194.669 114.209 193.126 112.668 191.222 112.668C189.319 112.668 187.776 114.209 187.776 116.11C187.776 118.012 189.319 119.553 191.222 119.553Z" fill="#DAEBFA"/>
<path d="M228.778 119.553C230.681 119.553 232.224 118.012 232.224 116.11C232.224 114.209 230.681 112.668 228.778 112.668C226.874 112.668 225.331 114.209 225.331 116.11C225.331 118.012 226.874 119.553 228.778 119.553Z" fill="#DAEBFA"/>
<path d="M266.333 119.553C268.236 119.553 269.779 118.012 269.779 116.11C269.779 114.209 268.236 112.668 266.333 112.668C264.429 112.668 262.886 114.209 262.886 116.11C262.886 118.012 264.429 119.553 266.333 119.553Z" fill="#DAEBFA"/>
<path d="M303.888 119.553C305.791 119.553 307.334 118.012 307.334 116.11C307.334 114.209 305.791 112.668 303.888 112.668C301.985 112.668 300.442 114.209 300.442 116.11C300.442 118.012 301.985 119.553 303.888 119.553Z" fill="#DAEBFA"/>
<path d="M341.443 119.553C343.346 119.553 344.889 118.012 344.889 116.11C344.889 114.209 343.346 112.668 341.443 112.668C339.54 112.668 337.997 114.209 337.997 116.11C337.997 118.012 339.54 119.553 341.443 119.553Z" fill="#DAEBFA"/>
<path d="M378.999 119.553C380.902 119.553 382.445 118.012 382.445 116.11C382.445 114.209 380.902 112.668 378.999 112.668C377.095 112.668 375.552 114.209 375.552 116.11C375.552 118.012 377.095 119.553 378.999 119.553Z" fill="#DAEBFA"/>
<path d="M416.554 119.553C418.457 119.553 420 118.012 420 116.11C420 114.209 418.457 112.668 416.554 112.668C414.65 112.668 413.107 114.209 413.107 116.11C413.107 118.012 414.65 119.553 416.554 119.553Z" fill="#DAEBFA"/>
<path d="M3.44639 157.109C5.34978 157.109 6.89278 155.568 6.89278 153.666C6.89278 151.765 5.34978 150.224 3.44639 150.224C1.543 150.224 0 151.765 0 153.666C0 155.568 1.543 157.109 3.44639 157.109Z" fill="#DAEBFA"/>
<path d="M41.0014 157.109C42.9048 157.109 44.4478 155.568 44.4478 153.666C44.4478 151.765 42.9048 150.224 41.0014 150.224C39.098 150.224 37.555 151.765 37.555 153.666C37.555 155.568 39.098 157.109 41.0014 157.109Z" fill="#DAEBFA"/>
<path d="M78.557 157.109C80.4604 157.109 82.0033 155.568 82.0033 153.666C82.0033 151.765 80.4604 150.224 78.557 150.224C76.6536 150.224 75.1106 151.765 75.1106 153.666C75.1106 155.568 76.6536 157.109 78.557 157.109Z" fill="#DAEBFA"/>
<path d="M116.112 157.109C118.015 157.109 119.558 155.568 119.558 153.666C119.558 151.765 118.015 150.224 116.112 150.224C114.209 150.224 112.666 151.765 112.666 153.666C112.666 155.568 114.209 157.109 116.112 157.109Z" fill="#DAEBFA"/>
<path d="M153.667 157.109C155.571 157.109 157.114 155.568 157.114 153.666C157.114 151.765 155.571 150.224 153.667 150.224C151.764 150.224 150.221 151.765 150.221 153.666C150.221 155.568 151.764 157.109 153.667 157.109Z" fill="#DAEBFA"/>
<path d="M191.222 157.109C193.126 157.109 194.669 155.568 194.669 153.666C194.669 151.765 193.126 150.224 191.222 150.224C189.319 150.224 187.776 151.765 187.776 153.666C187.776 155.568 189.319 157.109 191.222 157.109Z" fill="#DAEBFA"/>
<path d="M228.778 157.109C230.681 157.109 232.224 155.568 232.224 153.666C232.224 151.765 230.681 150.224 228.778 150.224C226.874 150.224 225.331 151.765 225.331 153.666C225.331 155.568 226.874 157.109 228.778 157.109Z" fill="#DAEBFA"/>
<path d="M266.333 157.109C268.236 157.109 269.779 155.568 269.779 153.666C269.779 151.765 268.236 150.224 266.333 150.224C264.429 150.224 262.886 151.765 262.886 153.666C262.886 155.568 264.429 157.109 266.333 157.109Z" fill="#DAEBFA"/>
<path d="M303.888 157.109C305.791 157.109 307.334 155.568 307.334 153.666C307.334 151.765 305.791 150.224 303.888 150.224C301.985 150.224 300.442 151.765 300.442 153.666C300.442 155.568 301.985 157.109 303.888 157.109Z" fill="#DAEBFA"/>
<path d="M341.443 157.109C343.346 157.109 344.889 155.568 344.889 153.666C344.889 151.765 343.346 150.224 341.443 150.224C339.54 150.224 337.997 151.765 337.997 153.666C337.997 155.568 339.54 157.109 341.443 157.109Z" fill="#DAEBFA"/>
<path d="M378.999 157.109C380.902 157.109 382.445 155.568 382.445 153.666C382.445 151.765 380.902 150.224 378.999 150.224C377.095 150.224 375.552 151.765 375.552 153.666C375.552 155.568 377.095 157.109 378.999 157.109Z" fill="#DAEBFA"/>
<path d="M416.554 157.109C418.457 157.109 420 155.568 420 153.666C420 151.765 418.457 150.224 416.554 150.224C414.65 150.224 413.107 151.765 413.107 153.666C413.107 155.568 414.65 157.109 416.554 157.109Z" fill="#DAEBFA"/>
<path d="M3.44639 194.665C5.34978 194.665 6.89278 193.123 6.89278 191.222C6.89278 189.321 5.34978 187.779 3.44639 187.779C1.543 187.779 0 189.321 0 191.222C0 193.123 1.543 194.665 3.44639 194.665Z" fill="#DAEBFA"/>
<path d="M41.0014 194.665C42.9048 194.665 44.4478 193.123 44.4478 191.222C44.4478 189.321 42.9048 187.779 41.0014 187.779C39.098 187.779 37.555 189.321 37.555 191.222C37.555 193.123 39.098 194.665 41.0014 194.665Z" fill="#DAEBFA"/>
<path d="M78.557 194.665C80.4604 194.665 82.0033 193.123 82.0033 191.222C82.0033 189.321 80.4604 187.779 78.557 187.779C76.6536 187.779 75.1106 189.321 75.1106 191.222C75.1106 193.123 76.6536 194.665 78.557 194.665Z" fill="#DAEBFA"/>
<path d="M116.112 194.665C118.015 194.665 119.558 193.123 119.558 191.222C119.558 189.321 118.015 187.779 116.112 187.779C114.209 187.779 112.666 189.321 112.666 191.222C112.666 193.123 114.209 194.665 116.112 194.665Z" fill="#DAEBFA"/>
<path d="M153.667 194.665C155.571 194.665 157.114 193.123 157.114 191.222C157.114 189.321 155.571 187.779 153.667 187.779C151.764 187.779 150.221 189.321 150.221 191.222C150.221 193.123 151.764 194.665 153.667 194.665Z" fill="#DAEBFA"/>
<path d="M191.222 194.665C193.126 194.665 194.669 193.123 194.669 191.222C194.669 189.321 193.126 187.779 191.222 187.779C189.319 187.779 187.776 189.321 187.776 191.222C187.776 193.123 189.319 194.665 191.222 194.665Z" fill="#DAEBFA"/>
<path d="M228.778 194.665C230.681 194.665 232.224 193.123 232.224 191.222C232.224 189.321 230.681 187.779 228.778 187.779C226.874 187.779 225.331 189.321 225.331 191.222C225.331 193.123 226.874 194.665 228.778 194.665Z" fill="#DAEBFA"/>
<path d="M266.333 194.665C268.236 194.665 269.779 193.123 269.779 191.222C269.779 189.321 268.236 187.779 266.333 187.779C264.429 187.779 262.886 189.321 262.886 191.222C262.886 193.123 264.429 194.665 266.333 194.665Z" fill="#DAEBFA"/>
<path d="M303.888 194.665C305.791 194.665 307.334 193.123 307.334 191.222C307.334 189.321 305.791 187.779 303.888 187.779C301.985 187.779 300.442 189.321 300.442 191.222C300.442 193.123 301.985 194.665 303.888 194.665Z" fill="#DAEBFA"/>
<path d="M341.443 194.665C343.346 194.665 344.889 193.123 344.889 191.222C344.889 189.321 343.346 187.779 341.443 187.779C339.54 187.779 337.997 189.321 337.997 191.222C337.997 193.123 339.54 194.665 341.443 194.665Z" fill="#DAEBFA"/>
<path d="M378.999 194.665C380.902 194.665 382.445 193.123 382.445 191.222C382.445 189.321 380.902 187.779 378.999 187.779C377.095 187.779 375.552 189.321 375.552 191.222C375.552 193.123 377.095 194.665 378.999 194.665Z" fill="#DAEBFA"/>
<path d="M416.554 194.665C418.457 194.665 420 193.123 420 191.222C420 189.321 418.457 187.779 416.554 187.779C414.65 187.779 413.107 189.321 413.107 191.222C413.107 193.123 414.65 194.665 416.554 194.665Z" fill="#DAEBFA"/>
<path d="M3.44639 232.221C5.34978 232.221 6.89278 230.679 6.89278 228.778C6.89278 226.877 5.34978 225.335 3.44639 225.335C1.543 225.335 0 226.877 0 228.778C0 230.679 1.543 232.221 3.44639 232.221Z" fill="#DAEBFA"/>
<path d="M41.0014 232.221C42.9048 232.221 44.4478 230.679 44.4478 228.778C44.4478 226.877 42.9048 225.335 41.0014 225.335C39.098 225.335 37.555 226.877 37.555 228.778C37.555 230.679 39.098 232.221 41.0014 232.221Z" fill="#DAEBFA"/>
<path d="M78.557 232.221C80.4604 232.221 82.0033 230.679 82.0033 228.778C82.0033 226.877 80.4604 225.335 78.557 225.335C76.6536 225.335 75.1106 226.877 75.1106 228.778C75.1106 230.679 76.6536 232.221 78.557 232.221Z" fill="#DAEBFA"/>
<path d="M116.112 232.221C118.015 232.221 119.558 230.679 119.558 228.778C119.558 226.877 118.015 225.335 116.112 225.335C114.209 225.335 112.666 226.877 112.666 228.778C112.666 230.679 114.209 232.221 116.112 232.221Z" fill="#DAEBFA"/>
<path d="M153.667 232.221C155.571 232.221 157.114 230.679 157.114 228.778C157.114 226.877 155.571 225.335 153.667 225.335C151.764 225.335 150.221 226.877 150.221 228.778C150.221 230.679 151.764 232.221 153.667 232.221Z" fill="#DAEBFA"/>
<path d="M191.222 232.221C193.126 232.221 194.669 230.679 194.669 228.778C194.669 226.877 193.126 225.335 191.222 225.335C189.319 225.335 187.776 226.877 187.776 228.778C187.776 230.679 189.319 232.221 191.222 232.221Z" fill="#DAEBFA"/>
<path d="M228.778 232.221C230.681 232.221 232.224 230.679 232.224 228.778C232.224 226.877 230.681 225.335 228.778 225.335C226.874 225.335 225.331 226.877 225.331 228.778C225.331 230.679 226.874 232.221 228.778 232.221Z" fill="#DAEBFA"/>
<path d="M266.333 232.221C268.236 232.221 269.779 230.679 269.779 228.778C269.779 226.877 268.236 225.335 266.333 225.335C264.429 225.335 262.886 226.877 262.886 228.778C262.886 230.679 264.429 232.221 266.333 232.221Z" fill="#DAEBFA"/>
<path d="M303.888 232.221C305.791 232.221 307.334 230.679 307.334 228.778C307.334 226.877 305.791 225.335 303.888 225.335C301.985 225.335 300.442 226.877 300.442 228.778C300.442 230.679 301.985 232.221 303.888 232.221Z" fill="#DAEBFA"/>
<path d="M341.443 232.221C343.346 232.221 344.889 230.679 344.889 228.778C344.889 226.877 343.346 225.335 341.443 225.335C339.54 225.335 337.997 226.877 337.997 228.778C337.997 230.679 339.54 232.221 341.443 232.221Z" fill="#DAEBFA"/>
<path d="M378.999 232.221C380.902 232.221 382.445 230.679 382.445 228.778C382.445 226.877 380.902 225.335 378.999 225.335C377.095 225.335 375.552 226.877 375.552 228.778C375.552 230.679 377.095 232.221 378.999 232.221Z" fill="#DAEBFA"/>
<path d="M416.554 232.221C418.457 232.221 420 230.679 420 228.778C420 226.877 418.457 225.335 416.554 225.335C414.65 225.335 413.107 226.877 413.107 228.778C413.107 230.679 414.65 232.221 416.554 232.221Z" fill="#DAEBFA"/>
<path d="M3.44639 269.776C5.34978 269.776 6.89278 268.235 6.89278 266.334C6.89278 264.432 5.34978 262.891 3.44639 262.891C1.543 262.891 0 264.432 0 266.334C0 268.235 1.543 269.776 3.44639 269.776Z" fill="#DAEBFA"/>
<path d="M41.0014 269.776C42.9048 269.776 44.4478 268.235 44.4478 266.334C44.4478 264.432 42.9048 262.891 41.0014 262.891C39.098 262.891 37.555 264.432 37.555 266.334C37.555 268.235 39.098 269.776 41.0014 269.776Z" fill="#DAEBFA"/>
<path d="M78.557 269.776C80.4604 269.776 82.0033 268.235 82.0033 266.334C82.0033 264.432 80.4604 262.891 78.557 262.891C76.6536 262.891 75.1106 264.432 75.1106 266.334C75.1106 268.235 76.6536 269.776 78.557 269.776Z" fill="#DAEBFA"/>
<path d="M116.112 269.776C118.015 269.776 119.558 268.235 119.558 266.334C119.558 264.432 118.015 262.891 116.112 262.891C114.209 262.891 112.666 264.432 112.666 266.334C112.666 268.235 114.209 269.776 116.112 269.776Z" fill="#DAEBFA"/>
<path d="M153.667 269.776C155.571 269.776 157.114 268.235 157.114 266.334C157.114 264.432 155.571 262.891 153.667 262.891C151.764 262.891 150.221 264.432 150.221 266.334C150.221 268.235 151.764 269.776 153.667 269.776Z" fill="#DAEBFA"/>
<path d="M191.222 269.776C193.126 269.776 194.669 268.235 194.669 266.334C194.669 264.432 193.126 262.891 191.222 262.891C189.319 262.891 187.776 264.432 187.776 266.334C187.776 268.235 189.319 269.776 191.222 269.776Z" fill="#DAEBFA"/>
<path d="M228.778 269.776C230.681 269.776 232.224 268.235 232.224 266.334C232.224 264.432 230.681 262.891 228.778 262.891C226.874 262.891 225.331 264.432 225.331 266.334C225.331 268.235 226.874 269.776 228.778 269.776Z" fill="#DAEBFA"/>
<path d="M266.333 269.776C268.236 269.776 269.779 268.235 269.779 266.334C269.779 264.432 268.236 262.891 266.333 262.891C264.429 262.891 262.886 264.432 262.886 266.334C262.886 268.235 264.429 269.776 266.333 269.776Z" fill="#DAEBFA"/>
<path d="M303.888 269.776C305.791 269.776 307.334 268.235 307.334 266.334C307.334 264.432 305.791 262.891 303.888 262.891C301.985 262.891 300.442 264.432 300.442 266.334C300.442 268.235 301.985 269.776 303.888 269.776Z" fill="#DAEBFA"/>
<path d="M341.443 269.776C343.346 269.776 344.889 268.235 344.889 266.334C344.889 264.432 343.346 262.891 341.443 262.891C339.54 262.891 337.997 264.432 337.997 266.334C337.997 268.235 339.54 269.776 341.443 269.776Z" fill="#DAEBFA"/>
<path d="M378.999 269.776C380.902 269.776 382.445 268.235 382.445 266.334C382.445 264.432 380.902 262.891 378.999 262.891C377.095 262.891 375.552 264.432 375.552 266.334C375.552 268.235 377.095 269.776 378.999 269.776Z" fill="#DAEBFA"/>
<path d="M416.554 269.776C418.457 269.776 420 268.235 420 266.334C420 264.432 418.457 262.891 416.554 262.891C414.65 262.891 413.107 264.432 413.107 266.334C413.107 268.235 414.65 269.776 416.554 269.776Z" fill="#DAEBFA"/>
<path d="M3.44639 307.332C5.34978 307.332 6.89278 305.791 6.89278 303.89C6.89278 301.988 5.34978 300.447 3.44639 300.447C1.543 300.447 0 301.988 0 303.89C0 305.791 1.543 307.332 3.44639 307.332Z" fill="#DAEBFA"/>
<path d="M41.0014 307.332C42.9048 307.332 44.4478 305.791 44.4478 303.89C44.4478 301.988 42.9048 300.447 41.0014 300.447C39.098 300.447 37.555 301.988 37.555 303.89C37.555 305.791 39.098 307.332 41.0014 307.332Z" fill="#DAEBFA"/>
<path d="M78.557 307.332C80.4604 307.332 82.0033 305.791 82.0033 303.89C82.0033 301.988 80.4604 300.447 78.557 300.447C76.6536 300.447 75.1106 301.988 75.1106 303.89C75.1106 305.791 76.6536 307.332 78.557 307.332Z" fill="#DAEBFA"/>
<path d="M116.112 307.332C118.015 307.332 119.558 305.791 119.558 303.89C119.558 301.988 118.015 300.447 116.112 300.447C114.209 300.447 112.666 301.988 112.666 303.89C112.666 305.791 114.209 307.332 116.112 307.332Z" fill="#DAEBFA"/>
<path d="M153.667 307.332C155.571 307.332 157.114 305.791 157.114 303.89C157.114 301.988 155.571 300.447 153.667 300.447C151.764 300.447 150.221 301.988 150.221 303.89C150.221 305.791 151.764 307.332 153.667 307.332Z" fill="#DAEBFA"/>
<path d="M191.222 307.332C193.126 307.332 194.669 305.791 194.669 303.89C194.669 301.988 193.126 300.447 191.222 300.447C189.319 300.447 187.776 301.988 187.776 303.89C187.776 305.791 189.319 307.332 191.222 307.332Z" fill="#DAEBFA"/>
<path d="M228.778 307.332C230.681 307.332 232.224 305.791 232.224 303.89C232.224 301.988 230.681 300.447 228.778 300.447C226.874 300.447 225.331 301.988 225.331 303.89C225.331 305.791 226.874 307.332 228.778 307.332Z" fill="#DAEBFA"/>
<path d="M266.333 307.332C268.236 307.332 269.779 305.791 269.779 303.89C269.779 301.988 268.236 300.447 266.333 300.447C264.429 300.447 262.886 301.988 262.886 303.89C262.886 305.791 264.429 307.332 266.333 307.332Z" fill="#DAEBFA"/>
<path d="M303.888 307.332C305.791 307.332 307.334 305.791 307.334 303.89C307.334 301.988 305.791 300.447 303.888 300.447C301.985 300.447 300.442 301.988 300.442 303.89C300.442 305.791 301.985 307.332 303.888 307.332Z" fill="#DAEBFA"/>
<path d="M341.443 307.332C343.346 307.332 344.889 305.791 344.889 303.89C344.889 301.988 343.346 300.447 341.443 300.447C339.54 300.447 337.997 301.988 337.997 303.89C337.997 305.791 339.54 307.332 341.443 307.332Z" fill="#DAEBFA"/>
<path d="M378.999 307.332C380.902 307.332 382.445 305.791 382.445 303.89C382.445 301.988 380.902 300.447 378.999 300.447C377.095 300.447 375.552 301.988 375.552 303.89C375.552 305.791 377.095 307.332 378.999 307.332Z" fill="#DAEBFA"/>
<path d="M416.554 307.332C418.457 307.332 420 305.791 420 303.89C420 301.988 418.457 300.447 416.554 300.447C414.65 300.447 413.107 301.988 413.107 303.89C413.107 305.791 414.65 307.332 416.554 307.332Z" fill="#DAEBFA"/>
<path d="M3.44639 344.888C5.34978 344.888 6.89278 343.347 6.89278 341.446C6.89278 339.544 5.34978 338.003 3.44639 338.003C1.543 338.003 0 339.544 0 341.446C0 343.347 1.543 344.888 3.44639 344.888Z" fill="#DAEBFA"/>
<path d="M41.0014 344.888C42.9048 344.888 44.4478 343.347 44.4478 341.446C44.4478 339.544 42.9048 338.003 41.0014 338.003C39.098 338.003 37.555 339.544 37.555 341.446C37.555 343.347 39.098 344.888 41.0014 344.888Z" fill="#DAEBFA"/>
<path d="M78.557 344.888C80.4604 344.888 82.0033 343.347 82.0033 341.446C82.0033 339.544 80.4604 338.003 78.557 338.003C76.6536 338.003 75.1106 339.544 75.1106 341.446C75.1106 343.347 76.6536 344.888 78.557 344.888Z" fill="#DAEBFA"/>
<path d="M116.112 344.888C118.015 344.888 119.558 343.347 119.558 341.446C119.558 339.544 118.015 338.003 116.112 338.003C114.209 338.003 112.666 339.544 112.666 341.446C112.666 343.347 114.209 344.888 116.112 344.888Z" fill="#DAEBFA"/>
<path d="M153.667 344.888C155.571 344.888 157.114 343.347 157.114 341.446C157.114 339.544 155.571 338.003 153.667 338.003C151.764 338.003 150.221 339.544 150.221 341.446C150.221 343.347 151.764 344.888 153.667 344.888Z" fill="#DAEBFA"/>
<path d="M191.222 344.888C193.126 344.888 194.669 343.347 194.669 341.446C194.669 339.544 193.126 338.003 191.222 338.003C189.319 338.003 187.776 339.544 187.776 341.446C187.776 343.347 189.319 344.888 191.222 344.888Z" fill="#DAEBFA"/>
<path d="M228.778 344.888C230.681 344.888 232.224 343.347 232.224 341.446C232.224 339.544 230.681 338.003 228.778 338.003C226.874 338.003 225.331 339.544 225.331 341.446C225.331 343.347 226.874 344.888 228.778 344.888Z" fill="#DAEBFA"/>
<path d="M266.333 344.888C268.236 344.888 269.779 343.347 269.779 341.446C269.779 339.544 268.236 338.003 266.333 338.003C264.429 338.003 262.886 339.544 262.886 341.446C262.886 343.347 264.429 344.888 266.333 344.888Z" fill="#DAEBFA"/>
<path d="M303.888 344.888C305.791 344.888 307.334 343.347 307.334 341.446C307.334 339.544 305.791 338.003 303.888 338.003C301.985 338.003 300.442 339.544 300.442 341.446C300.442 343.347 301.985 344.888 303.888 344.888Z" fill="#DAEBFA"/>
<path d="M341.443 344.888C343.346 344.888 344.889 343.347 344.889 341.446C344.889 339.544 343.346 338.003 341.443 338.003C339.54 338.003 337.997 339.544 337.997 341.446C337.997 343.347 339.54 344.888 341.443 344.888Z" fill="#DAEBFA"/>
<path d="M378.999 344.888C380.902 344.888 382.445 343.347 382.445 341.446C382.445 339.544 380.902 338.003 378.999 338.003C377.095 338.003 375.552 339.544 375.552 341.446C375.552 343.347 377.095 344.888 378.999 344.888Z" fill="#DAEBFA"/>
<path d="M416.554 344.888C418.457 344.888 420 343.347 420 341.446C420 339.544 418.457 338.003 416.554 338.003C414.65 338.003 413.107 339.544 413.107 341.446C413.107 343.347 414.65 344.888 416.554 344.888Z" fill="#DAEBFA"/>
<path d="M3.44639 382.444C5.34978 382.444 6.89278 380.903 6.89278 379.002C6.89278 377.1 5.34978 375.559 3.44639 375.559C1.543 375.559 0 377.1 0 379.002C0 380.903 1.543 382.444 3.44639 382.444Z" fill="#DAEBFA"/>
<path d="M41.0014 382.444C42.9048 382.444 44.4478 380.903 44.4478 379.002C44.4478 377.1 42.9048 375.559 41.0014 375.559C39.098 375.559 37.555 377.1 37.555 379.002C37.555 380.903 39.098 382.444 41.0014 382.444Z" fill="#DAEBFA"/>
<path d="M78.557 382.444C80.4604 382.444 82.0033 380.903 82.0033 379.002C82.0033 377.1 80.4604 375.559 78.557 375.559C76.6536 375.559 75.1106 377.1 75.1106 379.002C75.1106 380.903 76.6536 382.444 78.557 382.444Z" fill="#DAEBFA"/>
<path d="M116.112 382.444C118.015 382.444 119.558 380.903 119.558 379.002C119.558 377.1 118.015 375.559 116.112 375.559C114.209 375.559 112.666 377.1 112.666 379.002C112.666 380.903 114.209 382.444 116.112 382.444Z" fill="#DAEBFA"/>
<path d="M153.667 382.444C155.571 382.444 157.114 380.903 157.114 379.002C157.114 377.1 155.571 375.559 153.667 375.559C151.764 375.559 150.221 377.1 150.221 379.002C150.221 380.903 151.764 382.444 153.667 382.444Z" fill="#DAEBFA"/>
<path d="M191.222 382.444C193.126 382.444 194.669 380.903 194.669 379.002C194.669 377.1 193.126 375.559 191.222 375.559C189.319 375.559 187.776 377.1 187.776 379.002C187.776 380.903 189.319 382.444 191.222 382.444Z" fill="#DAEBFA"/>
<path d="M228.778 382.444C230.681 382.444 232.224 380.903 232.224 379.002C232.224 377.1 230.681 375.559 228.778 375.559C226.874 375.559 225.331 377.1 225.331 379.002C225.331 380.903 226.874 382.444 228.778 382.444Z" fill="#DAEBFA"/>
<path d="M266.333 382.444C268.236 382.444 269.779 380.903 269.779 379.002C269.779 377.1 268.236 375.559 266.333 375.559C264.429 375.559 262.886 377.1 262.886 379.002C262.886 380.903 264.429 382.444 266.333 382.444Z" fill="#DAEBFA"/>
<path d="M303.888 382.444C305.791 382.444 307.334 380.903 307.334 379.002C307.334 377.1 305.791 375.559 303.888 375.559C301.985 375.559 300.442 377.1 300.442 379.002C300.442 380.903 301.985 382.444 303.888 382.444Z" fill="#DAEBFA"/>
<path d="M341.443 382.444C343.346 382.444 344.889 380.903 344.889 379.002C344.889 377.1 343.346 375.559 341.443 375.559C339.54 375.559 337.997 377.1 337.997 379.002C337.997 380.903 339.54 382.444 341.443 382.444Z" fill="#DAEBFA"/>
<path d="M378.999 382.444C380.902 382.444 382.445 380.903 382.445 379.002C382.445 377.1 380.902 375.559 378.999 375.559C377.095 375.559 375.552 377.1 375.552 379.002C375.552 380.903 377.095 382.444 378.999 382.444Z" fill="#DAEBFA"/>
<path d="M416.554 382.444C418.457 382.444 420 380.903 420 379.002C420 377.1 418.457 375.559 416.554 375.559C414.65 375.559 413.107 377.1 413.107 379.002C413.107 380.903 414.65 382.444 416.554 382.444Z" fill="#DAEBFA"/>
<path d="M3.44639 420C5.34978 420 6.89278 418.459 6.89278 416.557C6.89278 414.656 5.34978 413.115 3.44639 413.115C1.543 413.115 0 414.656 0 416.557C0 418.459 1.543 420 3.44639 420Z" fill="#DAEBFA"/>
<path d="M41.0014 420C42.9048 420 44.4478 418.459 44.4478 416.557C44.4478 414.656 42.9048 413.115 41.0014 413.115C39.098 413.115 37.555 414.656 37.555 416.557C37.555 418.459 39.098 420 41.0014 420Z" fill="#DAEBFA"/>
<path d="M78.557 420C80.4604 420 82.0033 418.459 82.0033 416.557C82.0033 414.656 80.4604 413.115 78.557 413.115C76.6536 413.115 75.1106 414.656 75.1106 416.557C75.1106 418.459 76.6536 420 78.557 420Z" fill="#DAEBFA"/>
<path d="M116.112 420C118.015 420 119.558 418.459 119.558 416.557C119.558 414.656 118.015 413.115 116.112 413.115C114.209 413.115 112.666 414.656 112.666 416.557C112.666 418.459 114.209 420 116.112 420Z" fill="#DAEBFA"/>
<path d="M153.667 420C155.571 420 157.114 418.459 157.114 416.557C157.114 414.656 155.571 413.115 153.667 413.115C151.764 413.115 150.221 414.656 150.221 416.557C150.221 418.459 151.764 420 153.667 420Z" fill="#DAEBFA"/>
<path d="M191.222 420C193.126 420 194.669 418.459 194.669 416.557C194.669 414.656 193.126 413.115 191.222 413.115C189.319 413.115 187.776 414.656 187.776 416.557C187.776 418.459 189.319 420 191.222 420Z" fill="#DAEBFA"/>
<path d="M228.778 420C230.681 420 232.224 418.459 232.224 416.557C232.224 414.656 230.681 413.115 228.778 413.115C226.874 413.115 225.331 414.656 225.331 416.557C225.331 418.459 226.874 420 228.778 420Z" fill="#DAEBFA"/>
<path d="M266.333 420C268.236 420 269.779 418.459 269.779 416.557C269.779 414.656 268.236 413.115 266.333 413.115C264.429 413.115 262.886 414.656 262.886 416.557C262.886 418.459 264.429 420 266.333 420Z" fill="#DAEBFA"/>
<path d="M303.888 420C305.791 420 307.334 418.459 307.334 416.557C307.334 414.656 305.791 413.115 303.888 413.115C301.985 413.115 300.442 414.656 300.442 416.557C300.442 418.459 301.985 420 303.888 420Z" fill="#DAEBFA"/>
<path d="M341.443 420C343.346 420 344.889 418.459 344.889 416.557C344.889 414.656 343.346 413.115 341.443 413.115C339.54 413.115 337.997 414.656 337.997 416.557C337.997 418.459 339.54 420 341.443 420Z" fill="#DAEBFA"/>
<path d="M378.999 420C380.902 420 382.445 418.459 382.445 416.557C382.445 414.656 380.902 413.115 378.999 413.115C377.095 413.115 375.552 414.656 375.552 416.557C375.552 418.459 377.095 420 378.999 420Z" fill="#DAEBFA"/>
<path d="M416.554 420C418.457 420 420 418.459 420 416.557C420 414.656 418.457 413.115 416.554 413.115C414.65 413.115 413.107 414.656 413.107 416.557C413.107 418.459 414.65 420 416.554 420Z" fill="#DAEBFA"/>
</svg>
