<svg width="60" height="60" viewBox="0 0 60 60" fill="none" xmlns="http://www.w3.org/2000/svg">
<rect y="0.000488281" width="60" height="60" rx="30" fill="#1A66FF"/>
<g clip-path="url(#clip0)">
<path d="M37.25 29.7505H31.25V23.7504C31.25 23.3365 30.914 23.0005 30.5 23.0005C30.086 23.0005 29.75 23.3365 29.75 23.7504V29.7505H23.75C23.336 29.7505 23 30.0865 23 30.5004C23 30.9145 23.336 31.2505 23.75 31.2505H29.75V37.2504C29.75 37.6645 30.086 38.0005 30.5 38.0005C30.914 38.0005 31.25 37.6645 31.25 37.2504V31.2505H37.25C37.664 31.2505 38 30.9145 38 30.5004C38 30.0865 37.664 29.7505 37.25 29.7505Z" fill="white"/>
</g>
<defs>
<clipPath id="clip0">
<rect width="15" height="15" fill="white" transform="translate(23 23.0005)"/>
</clipPath>
</defs>
</svg>
