<svg width="65" height="40" viewBox="0 0 65 40" fill="none" xmlns="http://www.w3.org/2000/svg">
<path d="M14.249 32.0044C14.249 28.0697 11.0593 24.8799 7.1245 24.8799C3.18974 24.8799 -8.85636e-06 28.0697 -9.02835e-06 32.0044C-9.20035e-06 35.9392 3.18974 39.1289 7.1245 39.1289C11.0593 39.1289 14.249 35.9392 14.249 32.0044Z" fill="#F4F0FF"/>
<path d="M39.1845 32.0044C39.1845 28.0697 35.9948 24.8799 32.06 24.8799C28.1253 24.8799 24.9355 28.0697 24.9355 32.0044C24.9355 35.9392 28.1253 39.1289 32.06 39.1289C35.9948 39.1289 39.1845 35.9392 39.1845 32.0044Z" fill="#F4F0FF"/>
<path d="M64.1201 32.0044C64.1201 28.0697 60.9303 24.8799 56.9955 24.8799C53.0608 24.8799 49.871 28.0697 49.871 32.0044C49.871 35.9392 53.0608 39.1289 56.9955 39.1289C60.9303 39.1289 64.1201 35.9392 64.1201 32.0044Z" fill="#F4F0FF"/>
<path d="M14.249 7.12451C14.249 3.18975 11.0593 -1.97537e-06 7.1245 -2.49135e-06C3.18975 -3.00734e-06 -7.76882e-06 3.18975 -7.94082e-06 7.12451C-8.11281e-06 11.0593 3.18974 14.249 7.1245 14.249C11.0593 14.249 14.249 11.0593 14.249 7.12451Z" fill="#F4F0FF"/>
<path d="M39.1845 7.12451C39.1845 3.18975 35.9948 1.29453e-06 32.06 7.78545e-07C28.1253 2.62564e-07 24.9355 3.18975 24.9355 7.12451C24.9355 11.0593 28.1253 14.249 32.06 14.249C35.9948 14.249 39.1845 11.0593 39.1845 7.12451Z" fill="#F4F0FF"/>
<path d="M64.1201 7.12451C64.1201 3.18976 60.9303 4.56442e-06 56.9956 4.04844e-06C53.0608 3.53246e-06 49.871 3.18975 49.871 7.12451C49.871 11.0593 53.0608 14.249 56.9955 14.249C60.9303 14.249 64.1201 11.0593 64.1201 7.12451Z" fill="#F4F0FF"/>
</svg>
