<svg width="40" height="65" viewBox="0 0 40 65" fill="none" xmlns="http://www.w3.org/2000/svg">
<path d="M7.62008 14.7535C11.5548 14.7535 14.7446 11.5637 14.7446 7.62895C14.7446 3.6942 11.5548 0.504445 7.62008 0.504445C3.68533 0.504445 0.495573 3.6942 0.495572 7.62895C0.495572 11.5637 3.68533 14.7535 7.62008 14.7535Z" fill="#F4F0FF"/>
<path d="M7.62008 39.689C11.5548 39.689 14.7446 36.4992 14.7446 32.5645C14.7446 28.6297 11.5548 25.44 7.62008 25.44C3.68533 25.44 0.49557 28.6297 0.49557 32.5645C0.49557 36.4992 3.68532 39.689 7.62008 39.689Z" fill="#F4F0FF"/>
<path d="M7.62008 64.6245C11.5548 64.6245 14.7446 61.4348 14.7446 57.5C14.7446 53.5652 11.5548 50.3755 7.62008 50.3755C3.68532 50.3755 0.495564 53.5652 0.495564 57.5C0.495564 61.4348 3.68532 64.6245 7.62008 64.6245Z" fill="#F4F0FF"/>
<path d="M32.5 14.7535C36.4348 14.7535 39.6245 11.5637 39.6245 7.62896C39.6245 3.6942 36.4348 0.504448 32.5 0.504447C28.5653 0.504447 25.3755 3.6942 25.3755 7.62895C25.3755 11.5637 28.5652 14.7535 32.5 14.7535Z" fill="#F4F0FF"/>
<path d="M32.5 39.689C36.4348 39.689 39.6245 36.4992 39.6245 32.5645C39.6245 28.6297 36.4348 25.44 32.5 25.44C28.5652 25.44 25.3755 28.6297 25.3755 32.5645C25.3755 36.4992 28.5652 39.689 32.5 39.689Z" fill="#F4F0FF"/>
<path d="M32.5 64.6245C36.4348 64.6245 39.6245 61.4348 39.6245 57.5C39.6245 53.5652 36.4348 50.3755 32.5 50.3755C28.5652 50.3755 25.3755 53.5652 25.3755 57.5C25.3755 61.4348 28.5652 64.6245 32.5 64.6245Z" fill="#F4F0FF"/>
</svg>
