<svg width="15" height="15" viewBox="0 0 15 15" fill="none" xmlns="http://www.w3.org/2000/svg">
<path d="M14.7337 7.57781C14.7337 3.6825 11.5312 0.524063 7.57969 0.524063C7.16344 0.524063 6.75469 0.559688 6.35625 0.627188C5.71688 0.230625 4.96031 0 4.14937 0C1.85719 0 0 1.83094 0 4.09125C0 4.84594 0.208125 5.55188 0.57 6.16031C0.475312 6.61781 0.424688 7.09313 0.424688 7.57781C0.424688 11.4741 3.62812 14.6325 7.57875 14.6325C8.02687 14.6325 8.46375 14.5913 8.88938 14.5144C9.47438 14.8238 10.1409 15 10.8516 15C13.1428 15 15 13.1681 15 10.9097C15 10.2572 14.8444 9.64031 14.5688 9.09281C14.6775 8.60344 14.7337 8.09813 14.7337 7.57781Z" fill="#03A9F4"/>
<path d="M11.2491 10.9492C10.9182 11.4113 10.4297 11.777 9.79504 12.0357C9.16785 12.2926 8.41692 12.4248 7.56004 12.4248C6.53254 12.4248 5.67098 12.2467 4.99785 11.8942C4.51692 11.6382 4.12129 11.2923 3.82035 10.8629C3.51567 10.4317 3.36285 10.0032 3.36285 9.58791C3.36285 9.33104 3.46317 9.10603 3.66098 8.92322C3.85692 8.74041 4.10817 8.64947 4.40817 8.64947C4.65379 8.64947 4.86567 8.72166 5.03817 8.8651C5.20223 9.00385 5.34379 9.20822 5.45723 9.46979C5.58379 9.75666 5.7216 9.99854 5.86692 10.187C6.00848 10.3717 6.21004 10.5254 6.46785 10.6463C6.72754 10.7663 7.07723 10.8292 7.5066 10.8292C8.09817 10.8292 8.58379 10.7035 8.94754 10.4588C9.30473 10.2198 9.47723 9.93104 9.47723 9.57854C9.47723 9.30104 9.38629 9.08166 9.2016 8.9101C9.0066 8.7301 8.74973 8.59041 8.43848 8.49385C8.11317 8.39447 7.6716 8.28572 7.12598 8.17322C6.38254 8.01666 5.7516 7.83197 5.25098 7.6201C4.73817 7.40447 4.32379 7.10635 4.02192 6.73416C3.71442 6.35354 3.55879 5.87822 3.55879 5.31947C3.55879 4.78697 3.72192 4.30697 4.04442 3.8926C4.3641 3.48104 4.83098 3.15947 5.43379 2.94104C6.02723 2.72447 6.73317 2.61572 7.53285 2.61572C8.17129 2.61572 8.73285 2.68885 9.20254 2.83322C9.6741 2.9776 10.0716 3.1726 10.3838 3.41354C10.6988 3.65729 10.9332 3.9151 11.0794 4.1851C11.2275 4.45697 11.3035 4.72791 11.3035 4.98947C11.3035 5.24166 11.205 5.47135 11.01 5.6701C10.8132 5.87072 10.5657 5.97197 10.275 5.97197C10.0107 5.97197 9.80254 5.90729 9.6591 5.7826C9.52504 5.66541 9.38535 5.4826 9.2316 5.22197C9.05348 4.88822 8.83692 4.62479 8.58942 4.43822C8.34848 4.25729 7.94723 4.16729 7.3941 4.16729C6.88223 4.16729 6.4641 4.26854 6.15473 4.46916C5.8566 4.66135 5.71129 4.8826 5.71129 5.1451C5.71129 5.30541 5.75817 5.43947 5.85473 5.55479C5.95598 5.67854 6.09942 5.78447 6.28129 5.87447C6.46879 5.96728 6.66285 6.04229 6.85692 6.09479C7.05567 6.14916 7.38848 6.23072 7.84692 6.33479C8.42629 6.45666 8.95785 6.59447 9.42848 6.74354C9.90567 6.8926 10.3163 7.07729 10.6538 7.29385C10.996 7.51416 11.2669 7.79541 11.46 8.13291C11.6532 8.47322 11.7507 8.89041 11.7507 9.37604C11.7497 9.95635 11.581 10.486 11.2491 10.9492Z" fill="white"/>
</svg>
