<svg width="250" height="250" viewBox="0 0 250 250" fill="none" xmlns="http://www.w3.org/2000/svg">
<path d="M250 191.2H0V191.325H250V191.2Z" fill="#E6E6E6"/>
<path d="M62.41 198.765H45.85V198.89H62.41V198.765Z" fill="#E6E6E6"/>
<path d="M40.61 198.765H31.015V198.89H40.61V198.765Z" fill="#E6E6E6"/>
<path d="M105.275 200.605H95.68V200.73H105.275V200.605Z" fill="#E6E6E6"/>
<path d="M155.305 203.395H133.71V203.52H155.305V203.395Z" fill="#E6E6E6"/>
<path d="M129.26 203.395H126.095V203.52H129.26V203.395Z" fill="#E6E6E6"/>
<path d="M226.675 200.605H179.835V200.73H226.675V200.605Z" fill="#E6E6E6"/>
<path d="M118.5 168.9H21.955C21.1987 168.899 20.4738 168.597 19.9394 168.062C19.4051 167.527 19.105 166.801 19.105 166.045V30.33C19.1116 29.578 19.4146 28.859 19.9482 28.3291C20.4818 27.7992 21.203 27.5013 21.955 27.5H118.5C119.257 27.5 119.983 27.8008 120.519 28.3362C121.054 28.8716 121.355 29.5978 121.355 30.355V166.045C121.355 166.802 121.054 167.528 120.519 168.064C119.983 168.599 119.257 168.9 118.5 168.9ZM21.955 27.6C21.2318 27.6013 20.5387 27.8895 20.0278 28.4014C19.5169 28.9132 19.23 29.6068 19.23 30.33V166.045C19.23 166.768 19.5169 167.462 20.0278 167.974C20.5387 168.485 21.2318 168.774 21.955 168.775H118.5C119.224 168.774 119.917 168.486 120.429 167.974C120.941 167.462 121.229 166.769 121.23 166.045V30.33C121.229 29.6064 120.941 28.9127 120.429 28.4011C119.917 27.8894 119.224 27.6013 118.5 27.6H21.955Z" fill="#E6E6E6"/>
<path d="M226.655 168.9H130.105C129.348 168.899 128.623 168.597 128.088 168.062C127.553 167.527 127.251 166.802 127.25 166.045V30.33C127.258 29.5776 127.562 28.8585 128.096 28.3288C128.631 27.7991 129.353 27.5013 130.105 27.5H226.655C227.406 27.5026 228.126 27.8011 228.659 28.3309C229.191 28.8606 229.493 29.5789 229.5 30.33V166.045C229.5 166.8 229.201 167.525 228.667 168.06C228.134 168.595 227.41 168.897 226.655 168.9ZM130.105 27.6C129.381 27.6013 128.688 27.8894 128.176 28.4011C127.664 28.9127 127.376 29.6064 127.375 30.33V166.045C127.376 166.769 127.664 167.462 128.176 167.974C128.688 168.486 129.381 168.774 130.105 168.775H226.655C227.379 168.774 228.072 168.486 228.584 167.974C229.096 167.462 229.384 166.769 229.385 166.045V30.33C229.384 29.6064 229.096 28.9127 228.584 28.4011C228.072 27.8894 227.379 27.6013 226.655 27.6H130.105Z" fill="#E6E6E6"/>
<path d="M133.7 148.49H122.705V192.105H133.7V148.49Z" fill="#E0E0E0"/>
<path d="M131.61 192.105H133.7V186.165H129.42L131.61 192.105Z" fill="#FAFAFA"/>
<path d="M85.52 148.49H74.525V192.105H85.52V148.49Z" fill="#E0E0E0"/>
<path d="M133.7 148.49H83.7V188.46H133.7V148.49Z" fill="#FAFAFA"/>
<path d="M131.885 150.455V161.03H85.5V150.455H131.87H131.885ZM132.065 150.26H85.32V161.22H132.08V150.26H132.065Z" fill="#E0E0E0"/>
<path d="M85.785 192.105H83.7V186.165H87.975L85.785 192.105Z" fill="#FAFAFA"/>
<path d="M107.595 155.74C107.595 155.959 107.66 156.172 107.781 156.354C107.903 156.536 108.075 156.677 108.277 156.761C108.479 156.845 108.701 156.866 108.916 156.824C109.13 156.781 109.327 156.676 109.481 156.521C109.636 156.367 109.741 156.17 109.784 155.956C109.826 155.741 109.805 155.519 109.721 155.317C109.637 155.115 109.496 154.943 109.314 154.821C109.132 154.7 108.919 154.635 108.7 154.635C108.407 154.635 108.126 154.751 107.919 154.959C107.711 155.166 107.595 155.447 107.595 155.74Z" fill="#E6E6E6"/>
<path d="M131.885 163.185V173.76H85.5V163.185H131.87H131.885ZM132.065 162.995H85.32V173.955H132.08V163L132.065 162.995Z" fill="#E0E0E0"/>
<path d="M107.595 168.5C107.595 168.719 107.66 168.932 107.781 169.114C107.903 169.296 108.075 169.437 108.277 169.521C108.479 169.605 108.701 169.626 108.916 169.584C109.13 169.541 109.327 169.436 109.481 169.281C109.636 169.127 109.741 168.93 109.784 168.716C109.826 168.501 109.805 168.279 109.721 168.077C109.637 167.875 109.496 167.703 109.314 167.581C109.132 167.46 108.919 167.395 108.7 167.395C108.407 167.395 108.126 167.511 107.919 167.719C107.711 167.926 107.595 168.207 107.595 168.5Z" fill="#E6E6E6"/>
<path d="M131.885 175.92V186.5H85.5V175.92H131.87H131.885ZM132.065 175.725H85.32V186.69H132.08V175.725H132.065Z" fill="#E0E0E0"/>
<path d="M107.595 181.21C107.596 181.428 107.662 181.641 107.784 181.823C107.906 182.004 108.079 182.144 108.281 182.227C108.483 182.31 108.705 182.331 108.919 182.288C109.133 182.245 109.329 182.139 109.483 181.985C109.637 181.83 109.742 181.633 109.784 181.419C109.826 181.205 109.804 180.983 109.72 180.781C109.637 180.579 109.495 180.407 109.313 180.286C109.132 180.165 108.918 180.1 108.7 180.1C108.554 180.1 108.41 180.129 108.276 180.185C108.142 180.24 108.02 180.322 107.917 180.425C107.814 180.529 107.733 180.651 107.678 180.786C107.622 180.92 107.594 181.064 107.595 181.21Z" fill="#E6E6E6"/>
<path d="M78.805 123.16H67.81V192.11H78.805V123.16Z" fill="#E0E0E0"/>
<path d="M76.715 192.105H78.805V186.165H74.53L76.715 192.105Z" fill="#FAFAFA"/>
<path d="M37.715 123.16H26.72V192.11H37.715V123.16Z" fill="#E0E0E0"/>
<path d="M78.805 123.16H35.89V188.465H78.805V123.16Z" fill="#FAFAFA"/>
<path d="M76.955 125V139.785H37.74V125H76.955ZM77.185 124.775H37.5V140H77.175V124.78L77.185 124.775Z" fill="#E0E0E0"/>
<path d="M76.955 141.59V180.805H58.275V141.59H76.955ZM77.185 141.36H58.05V181.035H77.185V141.36Z" fill="#E0E0E0"/>
<path d="M56.42 141.59V180.805H37.74V141.59H56.42ZM56.645 141.36H37.5V181.035H56.635V141.36H56.645Z" fill="#E0E0E0"/>
<path d="M37.98 192.105H35.89V186.165H40.17L37.98 192.105Z" fill="#FAFAFA"/>
<path d="M56.24 132.4C56.239 132.62 56.3033 132.835 56.4246 133.018C56.546 133.201 56.719 133.344 56.9217 133.429C57.1245 133.514 57.3478 133.537 57.5635 133.494C57.7791 133.452 57.9774 133.347 58.1331 133.192C58.2888 133.037 58.3951 132.839 58.4383 132.623C58.4815 132.408 58.4598 132.184 58.376 131.981C58.2921 131.778 58.1498 131.605 57.9672 131.482C57.7846 131.36 57.5697 131.295 57.35 131.295C57.0565 131.295 56.7749 131.411 56.5669 131.618C56.3589 131.825 56.2413 132.106 56.24 132.4Z" fill="#E6E6E6"/>
<path d="M60.2 160.265C60.2 160.485 60.2653 160.7 60.3874 160.882C60.5096 161.065 60.6833 161.207 60.8864 161.291C61.0895 161.375 61.313 161.396 61.5284 161.353C61.7439 161.31 61.9416 161.204 62.0967 161.048C62.2517 160.892 62.357 160.694 62.3993 160.478C62.4416 160.263 62.4189 160.039 62.3341 159.837C62.2493 159.634 62.1063 159.461 61.9231 159.34C61.7399 159.218 61.5248 159.154 61.305 159.155C61.1595 159.155 61.0154 159.184 60.881 159.24C60.7466 159.295 60.6246 159.377 60.5219 159.48C60.4192 159.584 60.3379 159.706 60.2827 159.841C60.2275 159.975 60.1994 160.119 60.2 160.265Z" fill="#E6E6E6"/>
<path d="M52.285 160.265C52.286 160.483 52.3516 160.696 52.4737 160.878C52.5957 161.059 52.7686 161.199 52.9706 161.282C53.1726 161.365 53.3946 161.386 53.6086 161.343C53.8227 161.3 54.0191 161.194 54.1731 161.04C54.3272 160.885 54.4319 160.688 54.4741 160.474C54.5164 160.26 54.4942 160.038 54.4104 159.836C54.3266 159.634 54.185 159.462 54.0034 159.341C53.8218 159.22 53.6083 159.155 53.39 159.155C53.2445 159.155 53.1004 159.184 52.966 159.24C52.8316 159.295 52.7096 159.377 52.6069 159.48C52.5042 159.584 52.4229 159.706 52.3677 159.841C52.3125 159.975 52.2844 160.119 52.285 160.265Z" fill="#E6E6E6"/>
<path d="M51.035 103.935H46.4C46.8271 106.183 47.0961 108.459 47.205 110.745C47.205 113.245 43.675 123.16 48.705 123.16C53.735 123.16 50.205 113.27 50.205 110.745C50.3221 108.458 50.5995 106.183 51.035 103.935Z" fill="#E0E0E0"/>
<path d="M33.4 114.075V117.075C33.4053 118.683 34.0465 120.224 35.1837 121.361C36.3209 122.499 37.8618 123.14 39.47 123.145H42.47C44.0783 123.14 45.6191 122.499 46.7563 121.361C47.8935 120.224 48.5348 118.683 48.54 117.075V114.075H33.4Z" fill="#F5F5F5"/>
<path d="M97.835 142.13C97.835 145.63 101.75 148.49 106.535 148.49H110.855C115.64 148.49 119.555 145.63 119.555 142.13H97.835Z" fill="#E0E0E0"/>
<path d="M212.305 137C209.685 139.14 206.065 143.055 202.755 148.565C200.545 152.235 199.215 156.065 198.63 161.155C198.63 155.405 198.665 149.23 198.685 143.4C199.35 141.9 200.87 138.44 201.96 135.71C205.595 126.595 206.96 124.35 210.225 116.49C214.59 105.99 219.06 93.56 217.78 94.555C215.17 96.58 205.17 115.305 204.09 117.985C201.146 125.137 199.326 132.702 198.695 140.41C198.695 134.91 198.735 129.91 198.755 126.03C198.825 113.375 199.04 109.29 199.145 108.03C199.55 107.39 200.025 106.645 200.305 106.245C202.655 102.845 203.56 99.955 205.77 94.885C208.91 87.71 211.61 74.965 210.82 75.605C207.53 78.285 204.94 84.035 201.53 91.37C198.12 98.705 199.095 102.92 198.42 109.18C198.28 110.41 198.17 115.05 198.09 121.475C197.21 114.625 195.55 110.115 192.525 106.015C188.805 100.97 185.205 97.565 182.565 95.785C179.925 94.005 187.125 106.395 190.565 111.785C193.63 116.605 196.455 120.85 198.065 125.035C197.98 133.75 197.94 144.78 197.94 155.035C197.15 150.365 195.86 145.33 194.14 141.435C192.07 136.755 188.89 129.575 186.355 127.14C185.75 126.555 189.005 140.52 191.095 144.23C193.185 147.94 194.72 151.445 196.035 153.55C196.34 154.05 197.36 155.935 197.94 157.025C197.94 169.56 198.01 180.62 198.12 184.385H198.66C198.625 183.415 198.615 177.035 198.63 168.595C199.935 164.015 202.915 158.785 205.375 154.015C208.055 148.85 214.925 134.875 212.305 137Z" fill="#E0E0E0"/>
<path d="M206.22 192.105H190.55L189.365 176.745H207.405L206.22 192.105Z" fill="#F0F0F0"/>
<path d="M208.57 178.535H188.195L187.615 173.35H209.155L208.57 178.535Z" fill="#F5F5F5"/>
<path d="M62.13 37.75H34.105V68.525H62.13V37.75Z" fill="#E0E0E0"/>
<path d="M65.165 37.75H36.215V68.525H65.165V37.75Z" fill="#F5F5F5"/>
<path d="M62.74 66.1V40.175H38.64V66.1H62.74Z" fill="white"/>
<path d="M56.895 59.81V46.455H44.48V59.81H56.895Z" fill="#F5F5F5"/>
<path d="M205.025 41.335H178.99V69.925H205.025V41.335Z" fill="#E0E0E0"/>
<path d="M207.845 41.335H180.955V69.925H207.845V41.335Z" fill="#F5F5F5"/>
<path d="M205.595 67.67V43.59H183.21V67.67H205.595Z" fill="white"/>
<path d="M194.4 62.615C198.258 62.615 201.385 59.4877 201.385 55.63C201.385 51.7723 198.258 48.645 194.4 48.645C190.542 48.645 187.415 51.7723 187.415 55.63C187.415 59.4877 190.542 62.615 194.4 62.615Z" fill="#F5F5F5"/>
<path d="M91.245 56.1H70.455V78.93H91.245V56.1Z" fill="#E0E0E0"/>
<path d="M93.495 56.1H72.02V78.93H93.495V56.1Z" fill="#F5F5F5"/>
<path d="M91.695 77.13V57.9H73.82V77.13H91.695Z" fill="white"/>
<path d="M82.76 62.65L77.87 71.12H87.65L82.76 62.65Z" fill="#F5F5F5"/>
<path d="M125 213.78C178.541 213.78 221.945 211.246 221.945 208.12C221.945 204.994 178.541 202.46 125 202.46C71.4587 202.46 28.055 204.994 28.055 208.12C28.055 211.246 71.4587 213.78 125 213.78Z" fill="#F5F5F5"/>
<path d="M174.625 81.715L169.665 79.715C169.665 79.715 163.12 91.65 161.245 92.255C158.695 93.075 153.415 95.355 150.285 95.755C149.86 96.255 149.165 97.81 149.23 98.375C153.435 99.78 162.675 97.915 164.655 96.445C169.16 93.11 174.625 81.715 174.625 81.715Z" fill="#E58A7B"/>
<path d="M176.15 79C177.075 82.415 172.065 89.285 172.065 89.285L165.5 85.605C165.5 85.605 166.73 82.78 168.23 79.905C170.635 75.26 175.095 75.105 176.15 79Z" fill="#1A66FF"/>
<path opacity="0.2" d="M176.15 79C177.075 82.415 172.065 89.285 172.065 89.285L165.5 85.605C165.5 85.605 166.73 82.78 168.23 79.905C170.635 75.26 175.095 75.105 176.15 79Z" fill="black"/>
<path opacity="0.2" d="M168.105 87.075L170.69 88.525L171.145 80.59C169.64 81.745 168.58 85.225 168.105 87.075Z" fill="black"/>
<path d="M171.83 76.43C171.83 76.43 166.72 87.8 169.7 108.97H189.835C190.155 105.88 189.095 90.8 192.93 76.24C190.721 75.8083 188.486 75.5227 186.24 75.385C183.391 75.2199 180.534 75.2199 177.685 75.385C175.71 75.5856 173.753 75.9349 171.83 76.43Z" fill="#1A66FF"/>
<path opacity="0.2" d="M171.83 76.43C171.83 76.43 166.72 87.8 169.7 108.97H189.835C190.155 105.88 189.095 90.8 192.93 76.24C190.721 75.8083 188.486 75.5227 186.24 75.385C183.391 75.2199 180.534 75.2199 177.685 75.385C175.71 75.5856 173.753 75.9349 171.83 76.43Z" fill="black"/>
<g style="mix-blend-mode:multiply">
<path d="M167.16 208.57C167.13 209.11 174.765 209.545 184.21 209.545C193.655 209.545 201.345 209.11 201.375 208.57C201.405 208.03 193.775 207.6 184.325 207.6C174.875 207.6 167.195 208.035 167.16 208.57Z" fill="#E8ECF1"/>
</g>
<path d="M180.6 194.381L177.029 195.764L180.105 203.711L183.676 202.328L180.6 194.381Z" fill="#E58A7B"/>
<path d="M196.525 204.725H192.76L191.38 196.01H195.145L196.525 204.725Z" fill="#E58A7B"/>
<path d="M192.5 204.29H196.73C196.803 204.29 196.874 204.316 196.93 204.364C196.986 204.412 197.023 204.478 197.035 204.55L197.58 207.895C197.591 207.979 197.585 208.064 197.56 208.145C197.536 208.227 197.494 208.301 197.438 208.365C197.382 208.429 197.313 208.479 197.236 208.514C197.159 208.548 197.075 208.566 196.99 208.565C195.515 208.54 194.805 208.45 192.945 208.45C191.8 208.45 189.445 208.57 187.855 208.57C186.265 208.57 186.16 207.01 186.815 206.865C189.755 206.23 190.895 205.365 191.875 204.525C192.048 204.373 192.27 204.29 192.5 204.29Z" fill="#263238"/>
<path d="M180 203L184 201.83C184.071 201.81 184.148 201.815 184.216 201.844C184.284 201.873 184.34 201.925 184.375 201.99L185.875 204.99C185.91 205.066 185.928 205.149 185.927 205.233C185.927 205.316 185.908 205.399 185.872 205.475C185.837 205.55 185.785 205.617 185.72 205.671C185.656 205.725 185.581 205.763 185.5 205.785C184.045 206.185 183.07 206.43 181.25 206.96C179.995 207.325 178.715 207.92 177.475 208.315C176.615 208.59 174.595 208.6 173.55 208.6C172.005 208.6 171.66 206.97 172.325 206.895C174 206.71 174.225 206.795 175.15 206.33C176.664 205.668 178.035 204.721 179.19 203.54C179.408 203.292 179.687 203.106 180 203Z" fill="#263238"/>
<path d="M150.915 95.735L146.775 94L145.07 98.59C146.767 98.8485 148.493 98.8485 150.19 98.59L150.915 95.735Z" fill="#E58A7B"/>
<path d="M143.695 93.88L143.585 96.93L145.07 98.58L146.775 93.99L143.695 93.88Z" fill="#E58A7B"/>
<path d="M181.09 195.056L177.508 196.439L179.094 200.549L182.677 199.166L181.09 195.056Z" fill="#CF6F64"/>
<path d="M195.145 196.01H191.38L192.095 200.505H195.86L195.145 196.01Z" fill="#CF6F64"/>
<path opacity="0.2" d="M169.06 103.245C169.135 104.15 169.22 105.075 169.33 106.025L184.3 101.165C186.638 100.472 188.67 99.003 190.06 97C190.12 95.665 190.195 94.26 190.31 92.795C190.36 92.085 190.42 91.355 190.485 90.615C190.55 89.875 190.64 89.055 190.735 88.265L169.06 103.245Z" fill="black"/>
<path d="M173.95 86.845L173.45 86.785C173.745 84.285 175.61 82.315 177.575 82.365V82.865C175.855 82.83 174.215 84.605 173.95 86.845Z" fill="white"/>
<path d="M176.615 91.46H176.53V90.96C178.25 91.025 179.865 89.23 180.13 86.995L180.63 87.055C180.365 89.5 178.56 91.46 176.615 91.46Z" fill="white"/>
<path d="M185.96 65.75C185.255 68.505 184.425 73.55 186.24 75.385C186.24 75.385 184.97 78.18 179.855 78.18C175.18 78.18 177.685 75.385 177.685 75.385C180.795 74.655 180.85 72.385 180.44 70.235L185.96 65.75Z" fill="#E58A7B"/>
<path d="M183.71 67.58L180.445 70.235C180.546 70.729 180.605 71.2309 180.62 71.735C181.575 72.685 183.49 70.28 183.685 69.05C183.784 68.5657 183.793 68.0673 183.71 67.58Z" fill="#CF6F64"/>
<path d="M174.83 65.715C175.057 66.1088 175.363 66.4514 175.729 66.7216C176.094 66.9917 176.512 67.1835 176.955 67.285C178.155 67.55 178.755 66.445 178.425 65.335C178.13 64.335 177.145 62.99 175.925 63.22C175.664 63.2738 175.419 63.3895 175.212 63.5573C175.004 63.7251 174.84 63.9402 174.733 64.1845C174.626 64.4288 174.578 64.6953 174.595 64.9616C174.612 65.2279 174.693 65.4862 174.83 65.715Z" fill="#CF6F64"/>
<path d="M176.815 56.9C174.945 57.755 174.285 65.185 176.635 66.285C178.985 67.385 180.355 55.275 176.815 56.9Z" fill="#263238"/>
<path d="M186.53 61.605C186.08 65.335 186.03 67.53 184.03 69.44C183.41 70.0738 182.627 70.5241 181.768 70.741C180.908 70.9579 180.006 70.9331 179.159 70.6693C178.313 70.4054 177.556 69.9129 176.972 69.246C176.388 68.5791 176 67.7637 175.85 66.89C175.245 63.54 176.08 58.005 179.82 56.52C180.606 56.1734 181.47 56.0433 182.323 56.1431C183.176 56.243 183.987 56.5692 184.671 57.0879C185.356 57.6067 185.889 58.299 186.216 59.0933C186.543 59.8875 186.651 60.7547 186.53 61.605Z" fill="#E58A7B"/>
<path d="M180.385 58.83C183.155 58.125 185.19 57.645 184.46 59.95C183.495 63.03 182.335 66.01 183.89 66.145C184.84 66.23 189.04 64.45 188.505 62.645C188.04 61.075 190.005 60.645 190.355 59.85C191.65 56.97 187.945 57.35 188.605 55.6C189.265 53.85 185.605 51.03 183.605 52.435C180.35 54.705 174.765 54.67 177.7 50.935C179.805 48.27 176.05 48.815 176.05 48.815C176.05 48.815 178.32 50.16 174.5 52.24C170.46 54.46 174.165 60.425 180.385 58.83Z" fill="#263238"/>
<path d="M188 65.715C187.453 66.5063 186.632 67.0659 185.695 67.285C184.46 67.55 183.985 66.445 184.45 65.335C184.865 64.335 186.005 62.99 187.185 63.22C188.365 63.45 188.635 64.735 188 65.715Z" fill="#E58A7B"/>
<path d="M169.7 108.97C169.7 108.97 166.32 139.22 166.055 150.7C165.785 162.64 177.51 199.895 177.51 199.895L183.51 197.395C183.51 197.395 176.51 163.355 177.51 151.63C178.57 138.845 182.95 108.99 182.95 108.99L169.7 108.97Z" fill="#1A66FF"/>
<path opacity="0.2" d="M178.1 117.275C175.405 122.865 177.22 133.92 178.68 140.47C179.235 135.845 179.895 130.825 180.52 126.18C180.46 119.04 179.905 113.525 178.1 117.275Z" fill="black"/>
<path d="M183.245 195.415C183.275 195.415 183.955 197.325 183.955 197.325L177.035 200.235L175.945 198.205L183.245 195.415Z" fill="#1A66FF"/>
<path d="M176.845 108.97C176.845 108.97 179.43 137.74 181.14 148.515C183.02 160.32 190.39 199.635 190.39 199.635H197.285C197.285 199.635 193.155 161.275 192.375 149.585C191.525 136.905 189.835 108.97 189.835 108.97H176.845Z" fill="#1A66FF"/>
<path d="M197.39 197.84C197.42 197.84 197.62 199.765 197.62 199.765H190.04L189.5 197.555L197.39 197.84Z" fill="#1A66FF"/>
<path opacity="0.2" d="M194.75 195.56C194.734 195.56 194.719 195.555 194.707 195.545C194.695 195.535 194.687 195.52 194.685 195.505C194.645 195.155 190.92 160.505 190.22 150.005C189.46 138.615 187.93 113.35 187.915 113.095C187.914 113.087 187.915 113.078 187.918 113.071C187.921 113.063 187.925 113.055 187.931 113.049C187.936 113.043 187.943 113.038 187.951 113.035C187.958 113.032 187.967 113.03 187.975 113.03C187.991 113.03 188.007 113.036 188.019 113.047C188.031 113.058 188.039 113.074 188.04 113.09C188.04 113.345 189.585 138.59 190.345 150C191.045 160.5 194.77 195.125 194.805 195.5C194.806 195.508 194.806 195.517 194.804 195.525C194.802 195.533 194.798 195.541 194.793 195.547C194.788 195.554 194.781 195.559 194.774 195.563C194.767 195.567 194.758 195.569 194.75 195.57V195.56Z" fill="black"/>
<path d="M180.81 62.645C180.81 62.95 180.62 63.195 180.42 63.195C180.22 63.195 180.075 62.95 180.095 62.645C180.115 62.34 180.285 62.095 180.485 62.095C180.685 62.095 180.83 62.345 180.81 62.645Z" fill="#263238"/>
<path d="M177.38 62.645C177.38 62.95 177.185 63.195 176.99 63.195C176.795 63.195 176.645 62.95 176.66 62.645C176.675 62.34 176.855 62.095 177.055 62.095C177.255 62.095 177.4 62.345 177.38 62.645Z" fill="#263238"/>
<path d="M178.46 62.8C178.043 63.7313 177.505 64.6038 176.86 65.395C177.36 65.895 178.295 65.665 178.295 65.665L178.46 62.8Z" fill="#DF5753"/>
<path d="M178.55 66.94C178.538 66.94 178.527 66.9377 178.516 66.9331C178.506 66.9285 178.496 66.9218 178.488 66.9133C178.48 66.9049 178.474 66.8949 178.47 66.8841C178.466 66.8732 178.464 66.8616 178.465 66.85C178.466 66.8257 178.477 66.8028 178.495 66.786C178.512 66.7693 178.536 66.76 178.56 66.76C178.942 66.7626 179.321 66.6796 179.667 66.5169C180.013 66.3542 180.318 66.1161 180.56 65.82C180.577 65.8049 180.6 65.7965 180.622 65.7965C180.645 65.7965 180.668 65.8049 180.685 65.82C180.701 65.8368 180.71 65.8592 180.71 65.8825C180.71 65.9058 180.701 65.9282 180.685 65.945C180.426 66.2597 180.1 66.5124 179.73 66.6846C179.361 66.8568 178.958 66.944 178.55 66.94Z" fill="#263238"/>
<path d="M181.42 61.725C181.396 61.7373 181.369 61.7437 181.343 61.7437C181.316 61.7437 181.289 61.7373 181.265 61.725C181.078 61.6041 180.865 61.5289 180.644 61.5054C180.422 61.4819 180.198 61.5109 179.99 61.59C179.97 61.6001 179.948 61.6061 179.925 61.6076C179.902 61.609 179.88 61.606 179.858 61.5985C179.837 61.591 179.817 61.5794 179.8 61.5642C179.783 61.549 179.77 61.5305 179.76 61.51C179.741 61.4655 179.741 61.4155 179.759 61.3707C179.776 61.3259 179.811 61.2897 179.855 61.27C180.116 61.1632 180.4 61.1211 180.681 61.1472C180.962 61.1733 181.233 61.2669 181.47 61.42C181.489 61.433 181.506 61.4497 181.518 61.4691C181.531 61.4886 181.54 61.5103 181.544 61.5331C181.548 61.5559 181.548 61.5793 181.543 61.6019C181.538 61.6246 181.528 61.646 181.515 61.665C181.49 61.6937 181.457 61.7145 181.42 61.725Z" fill="#263238"/>
<path d="M176.055 60.725C176.028 60.7185 176.004 60.7047 175.985 60.685C175.968 60.6687 175.955 60.6492 175.946 60.6278C175.937 60.6063 175.932 60.5833 175.932 60.56C175.932 60.5367 175.937 60.5137 175.946 60.4922C175.955 60.4707 175.968 60.4513 175.985 60.435C176.177 60.22 176.415 60.0523 176.682 59.9447C176.95 59.8372 177.238 59.7928 177.525 59.815C177.548 59.8185 177.57 59.8268 177.59 59.8392C177.609 59.8516 177.626 59.8679 177.639 59.8871C177.653 59.9063 177.662 59.9281 177.666 59.9509C177.67 59.9738 177.67 59.9973 177.665 60.02C177.654 60.0663 177.627 60.1071 177.588 60.1347C177.55 60.1623 177.502 60.1749 177.455 60.17C177.228 60.1557 177 60.1933 176.79 60.2799C176.579 60.3665 176.391 60.4999 176.24 60.67C176.217 60.6953 176.188 60.7138 176.155 60.7235C176.123 60.7332 176.088 60.7337 176.055 60.725Z" fill="#263238"/>
<path d="M194.865 81.16L189.665 79.775C189.665 79.775 184.565 92.33 182.76 93.145C180.31 94.265 174.105 98.145 171.465 99.98C171.32 100.605 171.435 102.26 171.765 102.715C176.265 101.895 184.88 98.58 186.68 96.895C190.785 93.05 194.865 81.16 194.865 81.16Z" fill="#E58A7B"/>
<path d="M191.235 204.95C190.981 204.97 190.728 204.901 190.52 204.755C190.456 204.697 190.407 204.623 190.38 204.541C190.353 204.458 190.348 204.37 190.365 204.285C190.368 204.232 190.386 204.181 190.416 204.137C190.445 204.093 190.487 204.057 190.535 204.035C190.955 203.82 192.13 204.565 192.265 204.65C192.28 204.659 192.291 204.673 192.298 204.689C192.304 204.705 192.305 204.723 192.3 204.74C192.296 204.757 192.287 204.774 192.275 204.787C192.263 204.8 192.247 204.81 192.23 204.815C191.904 204.895 191.571 204.94 191.235 204.95ZM190.735 204.17C190.697 204.162 190.658 204.162 190.62 204.17C190.601 204.18 190.585 204.195 190.574 204.214C190.564 204.232 190.559 204.254 190.56 204.275C190.547 204.333 190.549 204.394 190.566 204.451C190.584 204.508 190.616 204.559 190.66 204.6C190.855 204.775 191.345 204.795 191.99 204.67C191.606 204.417 191.173 204.247 190.72 204.17H190.735Z" fill="#1A66FF"/>
<path d="M192.205 204.815C192.192 204.819 192.178 204.819 192.165 204.815C191.79 204.605 191.085 203.78 191.19 203.36C191.206 203.293 191.243 203.234 191.297 203.191C191.35 203.149 191.417 203.125 191.485 203.125C191.552 203.116 191.62 203.122 191.685 203.142C191.75 203.161 191.809 203.195 191.86 203.24C192.275 203.595 192.3 204.685 192.3 204.74C192.302 204.756 192.299 204.773 192.291 204.788C192.283 204.802 192.27 204.814 192.255 204.82C192.238 204.823 192.221 204.822 192.205 204.815ZM191.535 203.29H191.5C191.385 203.29 191.37 203.355 191.365 203.38C191.305 203.625 191.75 204.25 192.12 204.545C192.118 204.123 191.987 203.711 191.745 203.365C191.687 203.314 191.612 203.288 191.535 203.29Z" fill="#1A66FF"/>
<path d="M177.96 204.325C177.654 204.432 177.321 204.432 177.015 204.325C176.946 204.287 176.887 204.233 176.844 204.166C176.801 204.1 176.776 204.024 176.77 203.945C176.764 203.896 176.77 203.845 176.788 203.799C176.807 203.753 176.837 203.712 176.875 203.68C177.275 203.32 178.91 203.68 179.095 203.75C179.113 203.755 179.128 203.765 179.139 203.779C179.15 203.794 179.156 203.812 179.155 203.83C179.156 203.849 179.151 203.867 179.141 203.883C179.131 203.899 179.117 203.912 179.1 203.92C178.732 204.086 178.351 204.222 177.96 204.325ZM177.145 203.73C177.088 203.742 177.035 203.767 176.99 203.805C176.974 203.817 176.962 203.833 176.955 203.852C176.948 203.87 176.946 203.891 176.95 203.91C176.953 203.963 176.97 204.013 176.998 204.058C177.026 204.102 177.064 204.139 177.11 204.165C177.375 204.305 177.99 204.195 178.785 203.86C178.25 203.725 177.695 203.681 177.145 203.73Z" fill="#1A66FF"/>
<path d="M179.085 203.92H179.045C178.545 203.83 177.545 203.255 177.515 202.825C177.515 202.725 177.56 202.585 177.8 202.505C177.881 202.476 177.967 202.464 178.053 202.469C178.139 202.474 178.223 202.497 178.3 202.535C178.84 202.8 179.125 203.76 179.14 203.805C179.144 203.82 179.143 203.836 179.139 203.851C179.134 203.866 179.126 203.879 179.115 203.89C179.108 203.902 179.097 203.913 179.085 203.92ZM177.9 202.655H177.85C177.695 202.71 177.695 202.775 177.695 202.795C177.695 203.055 178.42 203.53 178.925 203.69C178.809 203.288 178.563 202.937 178.225 202.69C178.125 202.639 178.009 202.627 177.9 202.655Z" fill="#1A66FF"/>
<path d="M171.89 99.685L166.675 102.085L166.07 103.585L167.995 104.88C167.995 104.88 171.595 104.49 172.62 102.175L171.89 99.685Z" fill="#E58A7B"/>
<path d="M172.11 102.8C171.993 101.798 171.663 100.833 171.14 99.97L171.965 99.35C172.586 100.344 172.982 101.462 173.125 102.625L172.11 102.8Z" fill="#263238"/>
<path d="M173 100.395C173.11 100.568 173.164 100.772 173.155 100.977C173.146 101.182 173.073 101.38 172.948 101.542C172.823 101.705 172.65 101.825 172.454 101.886C172.258 101.947 172.047 101.947 171.852 101.884C171.656 101.821 171.484 101.7 171.36 101.537C171.236 101.373 171.165 101.175 171.157 100.97C171.149 100.764 171.205 100.562 171.316 100.389C171.428 100.216 171.59 100.082 171.78 100.005C171.994 99.8961 172.242 99.876 172.47 99.949C172.699 100.022 172.889 100.182 173 100.395Z" fill="#263238"/>
<path d="M163.15 104.025L163.845 104.725L168.525 102.725L166.675 102.085L163.15 104.025Z" fill="#E58A7B"/>
<path opacity="0.2" d="M183.245 195.415C183.275 195.415 183.955 197.325 183.955 197.325L177.035 200.235L175.945 198.205L183.245 195.415Z" fill="black"/>
<path opacity="0.2" d="M197.39 197.84C197.42 197.84 197.62 199.765 197.62 199.765H190.04L189.5 197.555L197.39 197.84Z" fill="black"/>
<path d="M196.22 79.72C197.595 84.155 192.22 90.22 192.22 90.22L184.795 87.19C185.675 84.6266 186.69 82.1114 187.835 79.655C190.115 74.74 194.83 75.245 196.22 79.72Z" fill="#1A66FF"/>
<path opacity="0.2" d="M196.22 79.72C197.595 84.155 192.22 90.22 192.22 90.22L184.795 87.19C185.675 84.6266 186.69 82.1114 187.835 79.655C190.115 74.74 194.83 75.245 196.22 79.72Z" fill="black"/>
<path d="M122.44 35.285H119.245V35.8H122.44V35.285Z" fill="#1A66FF"/>
<path d="M163.799 55.6682L163.412 64.2495L163.927 64.2727L164.314 55.6914L163.799 55.6682Z" fill="#1A66FF"/>
<path d="M162.805 37.595H103.805L98.315 160.455H157.315L162.805 37.595Z" fill="#1A66FF"/>
<path opacity="0.56" d="M161.045 39.285H102.045L96.555 162.145H155.555L161.045 39.285Z" fill="#FAFAFA"/>
<path opacity="0.07" d="M159.285 40.97H100.285L94.79 163.83H153.79L159.285 40.97Z" fill="#1A66FF"/>
<path d="M152.57 94.555H102.21L101.79 103.955H152.15L152.57 94.555Z" fill="white"/>
<path d="M129.905 87.695H102.515L102.33 91.9H129.72L129.905 87.695Z" fill="#1A66FF"/>
<path d="M151.435 119.925H101.075L100.655 129.325H151.015L151.435 119.925Z" fill="white"/>
<path opacity="0.47" d="M142.2 142.02H108.335L107.83 153.285H141.695L142.2 142.02Z" fill="#1A66FF"/>
<path d="M139.935 155.035H106.07C106.055 155.039 106.04 155.039 106.025 155.035C106.02 155.02 106.02 155.005 106.025 154.99L106.525 143.72C106.525 143.712 106.526 143.705 106.53 143.698C106.533 143.691 106.537 143.684 106.543 143.679C106.548 143.674 106.555 143.67 106.562 143.668C106.57 143.665 106.577 143.664 106.585 143.665H140.45C140.456 143.662 140.463 143.66 140.47 143.66C140.477 143.66 140.484 143.662 140.49 143.665C140.493 143.671 140.495 143.678 140.495 143.685C140.495 143.692 140.493 143.699 140.49 143.705L140 155C139.994 155.012 139.985 155.021 139.973 155.028C139.961 155.034 139.948 155.036 139.935 155.035ZM106.13 154.915H139.875L140.375 143.765H106.63L106.13 154.915Z" fill="white"/>
<path d="M123.99 113.065H101.38L101.195 117.275H123.8L123.99 113.065Z" fill="#1A66FF"/>
<path d="M141.555 64.19C141.426 66.9257 140.453 69.5543 138.77 71.715C137.524 73.3471 135.921 74.672 134.084 75.5882C132.246 76.5043 130.223 76.9873 128.17 77C126.511 77.0127 124.867 76.6855 123.339 76.0387C121.811 75.3918 120.431 74.439 119.286 73.2389C118.14 72.0388 117.252 70.6169 116.677 69.0606C116.101 67.5044 115.851 65.8468 115.94 64.19C116.116 60.752 117.598 57.5111 120.085 55.1299C122.571 52.7488 125.873 51.4074 129.315 51.38C130.975 51.3645 132.621 51.6897 134.151 52.3354C135.681 52.9811 137.062 53.9337 138.209 55.1343C139.356 56.3348 140.245 57.7578 140.821 59.3154C141.396 60.873 141.646 62.532 141.555 64.19Z" fill="white"/>
<path d="M142.76 54.06C142.727 54.7874 142.469 55.4866 142.02 56.06C141.688 56.4935 141.261 56.8454 140.773 57.0889C140.284 57.3324 139.746 57.461 139.2 57.465C138.671 57.4682 138.149 57.3419 137.68 57.0969C137.211 56.852 136.81 56.496 136.51 56.06C136.113 55.4708 135.917 54.7695 135.95 54.06C135.998 53.1472 136.393 52.2872 137.054 51.6554C137.714 51.0237 138.591 50.6676 139.505 50.66C139.946 50.656 140.383 50.7423 140.789 50.9136C141.196 51.085 141.563 51.3377 141.868 51.6562C142.173 51.9748 142.409 52.3524 142.563 52.7658C142.716 53.1792 142.783 53.6197 142.76 54.06Z" fill="#1A66FF"/>
<path d="M107.635 99.255C107.611 99.6579 107.435 100.037 107.143 100.315C106.851 100.593 106.464 100.751 106.06 100.755C105.865 100.757 105.672 100.72 105.492 100.644C105.312 100.569 105.15 100.458 105.015 100.317C104.88 100.176 104.775 100.01 104.707 99.8269C104.639 99.6443 104.61 99.4496 104.62 99.255C104.642 98.8512 104.817 98.4711 105.11 98.1922C105.402 97.9134 105.791 97.757 106.195 97.755C106.39 97.7534 106.583 97.7916 106.762 97.8672C106.941 97.9428 107.103 98.0542 107.238 98.1946C107.373 98.3351 107.478 98.5015 107.546 98.6839C107.614 98.8662 107.644 99.0605 107.635 99.255Z" fill="#263238"/>
<path d="M114.375 99.255C114.352 99.6583 114.177 100.038 113.884 100.316C113.592 100.595 113.204 100.752 112.8 100.755C112.606 100.757 112.413 100.718 112.234 100.643C112.054 100.567 111.893 100.456 111.758 100.315C111.624 100.175 111.52 100.008 111.452 99.8258C111.384 99.6434 111.355 99.4492 111.365 99.255C111.387 98.8521 111.561 98.4727 111.853 98.1939C112.144 97.9152 112.532 97.7583 112.935 97.755C113.13 97.7527 113.323 97.7904 113.503 97.8657C113.683 97.9411 113.845 98.0525 113.98 98.1931C114.115 98.3336 114.22 98.5004 114.288 98.6831C114.355 98.8657 114.385 99.0604 114.375 99.255Z" fill="#263238"/>
<path d="M121.12 99.255C121.097 99.6583 120.922 100.038 120.629 100.316C120.337 100.595 119.949 100.752 119.545 100.755C119.35 100.757 119.157 100.718 118.978 100.643C118.799 100.567 118.637 100.456 118.502 100.315C118.367 100.175 118.262 100.008 118.194 99.8261C118.126 99.6438 118.095 99.4495 118.105 99.255C118.128 98.8517 118.303 98.4722 118.596 98.1936C118.888 97.915 119.276 97.7582 119.68 97.755C119.875 97.7527 120.068 97.7904 120.248 97.8657C120.428 97.9411 120.59 98.0525 120.725 98.1931C120.86 98.3336 120.965 98.5004 121.033 98.6831C121.1 98.8657 121.13 99.0604 121.12 99.255Z" fill="#263238"/>
<path d="M106.5 124.625C106.476 125.028 106.3 125.407 106.008 125.685C105.716 125.963 105.329 126.121 104.925 126.125C104.73 126.127 104.537 126.088 104.358 126.013C104.179 125.937 104.017 125.826 103.882 125.685C103.747 125.545 103.642 125.378 103.574 125.196C103.506 125.014 103.475 124.819 103.485 124.625C103.508 124.222 103.683 123.842 103.976 123.564C104.268 123.285 104.656 123.128 105.06 123.125C105.255 123.123 105.448 123.162 105.627 123.237C105.806 123.313 105.968 123.424 106.103 123.565C106.238 123.705 106.343 123.872 106.411 124.054C106.479 124.236 106.51 124.431 106.5 124.625Z" fill="#263238"/>
<path d="M113.24 124.625C113.217 125.027 113.042 125.406 112.751 125.685C112.459 125.963 112.073 126.121 111.67 126.125C111.475 126.127 111.282 126.09 111.102 126.014C110.922 125.939 110.76 125.828 110.625 125.687C110.49 125.546 110.385 125.38 110.317 125.197C110.249 125.014 110.22 124.82 110.23 124.625C110.253 124.222 110.428 123.842 110.721 123.564C111.013 123.285 111.401 123.128 111.805 123.125C111.999 123.123 112.192 123.162 112.371 123.237C112.55 123.313 112.712 123.424 112.847 123.565C112.981 123.705 113.085 123.872 113.153 124.054C113.221 124.237 113.25 124.431 113.24 124.625Z" fill="#263238"/>
<path d="M120 124.625C119.977 125.028 119.802 125.408 119.509 125.686C119.217 125.965 118.829 126.122 118.425 126.125C118.231 126.126 118.038 126.087 117.859 126.011C117.68 125.936 117.518 125.824 117.383 125.684C117.249 125.544 117.144 125.377 117.075 125.195C117.007 125.013 116.976 124.819 116.985 124.625C117.009 124.222 117.185 123.843 117.477 123.565C117.769 123.287 118.156 123.129 118.56 123.125C118.755 123.123 118.948 123.16 119.128 123.236C119.308 123.311 119.47 123.422 119.605 123.563C119.74 123.704 119.845 123.87 119.913 124.053C119.981 124.236 120.01 124.43 120 124.625Z" fill="#263238"/>
<path d="M126.73 124.625C126.706 125.028 126.53 125.407 126.238 125.685C125.946 125.963 125.559 126.121 125.155 126.125C124.961 126.126 124.768 126.087 124.589 126.011C124.41 125.936 124.248 125.824 124.113 125.684C123.979 125.543 123.874 125.377 123.805 125.195C123.737 125.013 123.706 124.819 123.715 124.625C123.739 124.222 123.915 123.843 124.207 123.565C124.499 123.287 124.886 123.129 125.29 123.125C125.485 123.123 125.678 123.162 125.857 123.237C126.036 123.313 126.198 123.424 126.333 123.565C126.468 123.705 126.573 123.872 126.641 124.054C126.709 124.236 126.74 124.431 126.73 124.625Z" fill="#263238"/>
<path d="M133.5 124.625C133.476 125.028 133.3 125.407 133.008 125.685C132.716 125.963 132.329 126.121 131.925 126.125C131.73 126.127 131.537 126.09 131.357 126.014C131.177 125.939 131.015 125.828 130.88 125.687C130.745 125.546 130.64 125.38 130.572 125.197C130.504 125.014 130.475 124.82 130.485 124.625C130.508 124.222 130.683 123.842 130.976 123.564C131.268 123.285 131.656 123.128 132.06 123.125C132.255 123.123 132.448 123.162 132.627 123.237C132.806 123.313 132.968 123.424 133.103 123.565C133.238 123.705 133.343 123.872 133.411 124.054C133.479 124.236 133.509 124.431 133.5 124.625Z" fill="#263238"/>
<path d="M132.477 63.5228C134.569 61.4763 134.68 58.196 132.725 56.196C130.769 54.196 127.487 54.2337 125.394 56.2803C123.301 58.3268 123.19 61.6071 125.146 63.6071C127.102 65.6071 130.384 65.5694 132.477 63.5228Z" fill="#1A66FF"/>
<path d="M138.77 71.715C137.524 73.3471 135.921 74.672 134.084 75.5881C132.246 76.5043 130.223 76.9873 128.17 77C126.179 77.0169 124.214 76.5436 122.45 75.622C120.685 74.7003 119.174 73.3585 118.05 71.715C120.48 69.295 124.325 67.715 128.585 67.715C132.845 67.715 136.555 69.295 138.77 71.715Z" fill="#1A66FF"/>
<path opacity="0.1" d="M132.477 63.5228C134.569 61.4763 134.68 58.196 132.725 56.196C130.769 54.196 127.487 54.2337 125.394 56.2803C123.301 58.3268 123.19 61.6071 125.146 63.6071C127.102 65.6071 130.384 65.5694 132.477 63.5228Z" fill="white"/>
<path opacity="0.1" d="M138.77 71.715C137.524 73.3471 135.921 74.672 134.084 75.5881C132.246 76.5043 130.223 76.9873 128.17 77C126.179 77.0169 124.214 76.5436 122.45 75.622C120.685 74.7003 119.174 73.3585 118.05 71.715C120.48 69.295 124.325 67.715 128.585 67.715C132.845 67.715 136.555 69.295 138.77 71.715Z" fill="white"/>
<path d="M65.205 106.22C64.73 107.26 64.23 108.405 63.795 109.515C63.36 110.625 62.915 111.77 62.53 112.91C61.7439 115.157 61.1452 117.465 60.74 119.81L60.63 120.545C60.6195 120.671 60.6314 120.798 60.665 120.92C60.783 121.334 60.9689 121.726 61.215 122.08C61.8571 122.995 62.602 123.834 63.435 124.58C64.3133 125.397 65.2346 126.166 66.195 126.885C67.155 127.625 68.165 128.345 69.16 129.025L68.225 130.78C65.8491 129.745 63.594 128.452 61.5 126.925C60.3829 126.11 59.3747 125.156 58.5 124.085C57.9815 123.448 57.5773 122.725 57.305 121.95C57.1467 121.466 57.0657 120.959 57.065 120.45C57.065 120.33 57.065 120.155 57.065 120.07V119.825L57.115 119.325C57.4017 116.72 57.9494 114.15 58.75 111.655C59.14 110.425 59.555 109.2 60.03 108.005C60.505 106.81 60.995 105.64 61.6 104.425L65.205 106.22Z" fill="#E58A7B"/>
<path d="M68.455 128.715L71.99 126.925L71.075 130.805C71.075 130.805 68.65 131.485 67.525 130.305L68.455 128.715Z" fill="#E58A7B"/>
<path d="M75.225 127.56L74.285 130.77L71.075 130.805L71.99 126.925L75.225 127.56Z" fill="#E58A7B"/>
<path d="M80.215 87.5C80.4041 88.1929 80.6673 88.8635 81 89.5C80.9028 89.6102 80.7776 89.6921 80.6376 89.737C80.4977 89.7819 80.3482 89.7881 80.205 89.755L80.215 87.5Z" fill="#DF5753"/>
<path d="M80.11 87.53C80.3171 87.53 80.485 87.2726 80.485 86.955C80.485 86.6374 80.3171 86.38 80.11 86.38C79.9029 86.38 79.735 86.6374 79.735 86.955C79.735 87.2726 79.9029 87.53 80.11 87.53Z" fill="#263238"/>
<path d="M80 86.4L80.76 86.185C80.76 86.185 80.39 86.775 80 86.4Z" fill="#263238"/>
<path d="M70.45 91.17C70.905 93.495 71.36 97.76 69.73 99.315C69.73 99.315 70.37 101.675 74.695 101.675C79.45 101.675 76.965 99.315 76.965 99.315C74.37 98.695 74.435 96.77 74.89 94.96L70.45 91.17Z" fill="#E58A7B"/>
<path d="M69.185 85.87C69.425 89.755 69.445 91.405 71.405 93.4C74.36 96.4 79.08 95.26 80.005 91.4C80.84 87.9 80.31 82.14 76.505 80.595C75.6698 80.2509 74.7606 80.1256 73.8634 80.2309C72.9663 80.3362 72.1108 80.6686 71.378 81.1967C70.6451 81.7249 70.0591 82.4312 69.6754 83.2489C69.2916 84.0667 69.1229 84.9688 69.185 85.87Z" fill="#E58A7B"/>
<path d="M69.57 81.5C67.62 82.21 65.02 81.68 66.04 87.695C67.12 94.065 65.46 96.16 65.46 96.16C65.46 96.16 72.855 97.735 80.405 96.065C80.405 96.065 78.1 92.035 78.745 89.065C79.57 85.315 78.92 83.93 78.92 83.93C78.92 83.93 72.31 80.5 69.57 81.5Z" fill="#263238"/>
<path d="M77.82 87.895C77.822 88.6337 78.0336 89.3567 78.43 89.98C78.96 90.79 79.585 90.48 79.74 89.62C79.88 88.865 79.775 87.53 79.1 87.01C78.425 86.49 77.83 87 77.82 87.895Z" fill="#E58A7B"/>
<path d="M67.875 82.155C67.315 80.58 69.985 78.155 75.635 79.155C81.285 80.155 81.53 84.86 81.53 84.86L80.39 83.5L80.44 84.93L74.635 86.045L67.875 82.155Z" fill="#263238"/>
<path d="M68.355 99.58C68.3217 99.3517 68.3788 99.1194 68.5142 98.9326C68.6496 98.7458 68.8526 98.6193 69.08 98.58C70.84 98.29 74.84 97.7 76.85 97.98C78.35 98.19 78.74 99.06 78.805 99.775C78.8152 99.9002 78.7984 100.026 78.7559 100.144C78.7134 100.262 78.646 100.37 78.5584 100.46C78.4708 100.55 78.3649 100.62 78.2479 100.666C78.1309 100.712 78.0054 100.732 77.88 100.725L69.19 100.335C68.9851 100.325 68.7901 100.244 68.638 100.106C68.4858 99.9687 68.3859 99.7828 68.355 99.58Z" fill="#1A66FF"/>
<path opacity="0.6" d="M68.355 99.58C68.3217 99.3517 68.3788 99.1194 68.5142 98.9326C68.6496 98.7458 68.8526 98.6193 69.08 98.58C70.84 98.29 74.84 97.7 76.85 97.98C78.35 98.19 78.74 99.06 78.805 99.775C78.8152 99.9002 78.7984 100.026 78.7559 100.144C78.7134 100.262 78.646 100.37 78.5584 100.46C78.4708 100.55 78.3649 100.62 78.2479 100.666C78.1309 100.712 78.0054 100.732 77.88 100.725L69.19 100.335C68.9851 100.325 68.7901 100.244 68.638 100.106C68.4858 99.9687 68.3859 99.7828 68.355 99.58Z" fill="black"/>
<path d="M73.38 186.93L76.605 189.17L82 181.855L78.775 179.62L73.38 186.93Z" fill="#E58A7B"/>
<path d="M65.86 186.785L69.265 188.725L74.04 180.99L70.635 179.05L65.86 186.785Z" fill="#E58A7B"/>
<path d="M81.995 181.855L79.215 185.625L75.99 183.39L78.77 179.62L81.995 181.855Z" fill="#CF6F64"/>
<path d="M70.63 179.05L74.04 180.995L71.58 184.98L68.17 183.035L70.63 179.05Z" fill="#CF6F64"/>
<path d="M76.1 124C76.1 124 88.69 139.865 86.325 155.04C84.42 167.295 73.37 183.89 73.37 183.89L68.175 181.31C71.8368 173.973 74.9616 166.379 77.525 158.59C78.3155 156.172 78.5462 153.605 78.1998 151.085C77.8533 148.564 76.9387 146.155 75.525 144.04C69.145 134.725 58.925 140.27 65.8 124H76.1Z" fill="#1A66FF"/>
<path opacity="0.6" d="M76.1 124C76.1 124 88.69 139.865 86.325 155.04C84.42 167.295 73.37 183.89 73.37 183.89L68.175 181.31C71.8368 173.973 74.9616 166.379 77.525 158.59C78.3155 156.172 78.5462 153.605 78.1998 151.085C77.8533 148.564 76.9387 146.155 75.525 144.04C69.145 134.725 58.925 140.27 65.8 124H76.1Z" fill="black"/>
<path opacity="0.4" d="M82.275 134.19L80.445 132.37C80.445 132.515 83.99 154.4 84.985 160.55C85.5722 158.753 86.0218 156.915 86.33 155.05C87.5 147.605 85.055 140 82.275 134.19Z" fill="black"/>
<path d="M81.72 124C81.72 124 96.88 143.94 97.31 155.895C97.665 165.895 80.81 185.27 80.81 185.27L75.91 182.1C75.91 182.1 85.775 168.34 88.26 157.1C87.3 145.96 67 124 67 124H81.72Z" fill="#1A66FF"/>
<path opacity="0.6" d="M81.72 124C81.72 124 96.88 143.94 97.31 155.895C97.665 165.895 80.81 185.27 80.81 185.27L75.91 182.1C75.91 182.1 85.775 168.34 88.26 157.1C87.3 145.96 67 124 67 124H81.72Z" fill="black"/>
<path d="M62.965 100.205C61.345 100.59 59.79 106.48 59.79 106.48L66.125 110.71C66.125 110.71 68.235 106.05 67.495 104.01C66.73 101.885 65 99.72 62.965 100.205Z" fill="#1A66FF"/>
<path opacity="0.2" d="M64.205 104L63.765 109.135L66.12 110.715C66.7702 109.251 67.2517 107.718 67.555 106.145L64.205 104Z" fill="black"/>
<path d="M83.595 100.32C83.595 100.32 85.465 100.975 81.72 123.995H65.79C66.06 117.495 66.065 113.495 62.965 100.205C65.1956 99.7453 67.4565 99.4479 69.73 99.315C72.1386 99.1423 74.5564 99.1423 76.965 99.315C80.075 99.6 83.595 100.32 83.595 100.32Z" fill="#1A66FF"/>
<path d="M85.215 104C85.575 105 85.955 106.075 86.355 107.11C86.755 108.145 87.135 109.21 87.54 110.26L88.765 113.4L89.075 114.185L89.235 114.575L89.31 114.77C89.31 114.805 89.31 114.805 89.31 114.8C89.2187 114.671 89.0989 114.565 88.96 114.49C88.7622 114.374 88.5392 114.307 88.31 114.295C88.1196 114.289 87.9301 114.325 87.755 114.4C87.525 114.505 87.525 114.55 87.53 114.545C87.5716 114.512 87.6086 114.473 87.64 114.43C87.9168 114.067 88.1563 113.676 88.355 113.265C88.59 112.805 88.815 112.315 89.04 111.82C89.48 110.82 89.885 109.785 90.29 108.74C90.695 107.695 91.08 106.64 91.455 105.575L92.595 102.385L94.52 102.885C94.14 105.165 93.65 107.385 93.06 109.645C92.775 110.77 92.44 111.885 92.06 113.01C91.87 113.575 91.66 114.135 91.42 114.71C91.1699 115.334 90.8619 115.933 90.5 116.5C90.367 116.691 90.2199 116.871 90.06 117.04C89.8047 117.316 89.4948 117.535 89.15 117.685C88.8441 117.816 88.5127 117.878 88.18 117.865C87.8073 117.851 87.4443 117.743 87.125 117.55C86.7483 117.315 86.4357 116.99 86.215 116.605C86.14 116.475 86.075 116.345 86.03 116.25L85.935 116.06L85.745 115.67L85.365 114.895C84.865 113.855 84.365 112.805 83.93 111.75C83.495 110.695 83.035 109.625 82.605 108.55C82.175 107.475 81.79 106.4 81.425 105.24L85.215 104Z" fill="#E58A7B"/>
<path d="M83.595 100.32C85.51 100.775 87.665 106.435 87.665 106.435L81.97 111.28C81.97 111.28 78.285 105.11 79.03 103.075C79.805 100.955 81.095 99.725 83.595 100.32Z" fill="#1A66FF"/>
<path d="M93.5 100.595L95.5 98.925L96.89 101.09L95.865 102.895C95.865 102.895 94.235 104.395 92.795 103.63C92.5664 103.116 92.5116 102.542 92.6389 101.994C92.7661 101.447 93.0684 100.955 93.5 100.595Z" fill="#E58A7B"/>
<path d="M99.11 98.93L98.96 99.475L95.795 100.005L95.485 98.925L99.11 98.93Z" fill="#E58A7B"/>
<path d="M81.2 185.525L75.49 181.835L76.515 180.055L82.93 184L81.2 185.525Z" fill="#1A66FF"/>
<path d="M71.5 188.465C70.999 188.404 70.5176 188.233 70.09 187.965C70.0724 187.959 70.0571 187.947 70.0462 187.932C70.0354 187.917 70.0296 187.899 70.0296 187.88C70.0296 187.861 70.0354 187.843 70.0462 187.828C70.0571 187.813 70.0724 187.801 70.09 187.795C70.245 187.745 71.59 187.33 71.98 187.65C72.0239 187.686 72.0572 187.734 72.0765 187.788C72.0958 187.841 72.1005 187.899 72.09 187.955C72.0831 188.045 72.0533 188.132 72.0034 188.207C71.9535 188.282 71.8852 188.344 71.805 188.385C71.7114 188.436 71.6067 188.464 71.5 188.465ZM70.375 187.915C71 188.235 71.5 188.35 71.74 188.23C71.7923 188.201 71.8363 188.159 71.8678 188.108C71.8993 188.058 71.9173 188 71.92 187.94C71.92 187.86 71.92 187.825 71.875 187.805C71.665 187.635 70.915 187.765 70.365 187.915H70.375Z" fill="#263238"/>
<path d="M70.125 188C70.0986 188 70.0735 187.989 70.055 187.97C70.0476 187.956 70.0437 187.941 70.0437 187.925C70.0437 187.909 70.0476 187.894 70.055 187.88C70.055 187.835 70.38 186.75 70.89 186.505C70.9551 186.475 71.0259 186.46 71.0975 186.46C71.1691 186.46 71.2399 186.475 71.305 186.505C71.3752 186.527 71.436 186.572 71.4777 186.633C71.5194 186.694 71.5395 186.766 71.535 186.84C71.5 187.29 70.585 187.91 70.165 188.015L70.125 188ZM71.095 186.635C71.0464 186.636 70.9986 186.648 70.955 186.67C70.645 186.82 70.39 187.405 70.265 187.76C70.705 187.575 71.31 187.085 71.33 186.81C71.33 186.765 71.33 186.71 71.215 186.66C71.1776 186.64 71.137 186.626 71.095 186.62V186.635Z" fill="#263238"/>
<path d="M78.635 190.625C78.07 190.625 77.285 189.9 76.855 189.455C76.844 189.44 76.8381 189.421 76.8381 189.403C76.8381 189.384 76.844 189.365 76.855 189.35C76.8649 189.334 76.8789 189.321 76.8956 189.312C76.9123 189.303 76.9311 189.299 76.95 189.3C77.15 189.3 78.885 189.56 79.13 190.05C79.1559 190.094 79.1696 190.144 79.1696 190.195C79.1696 190.246 79.1559 190.296 79.13 190.34C79.0933 190.416 79.0377 190.482 78.9687 190.531C78.8996 190.58 78.8192 190.611 78.735 190.62L78.635 190.625ZM77.185 189.525C77.815 190.135 78.37 190.475 78.685 190.435C78.7402 190.428 78.7927 190.407 78.8381 190.375C78.8834 190.343 78.9201 190.3 78.945 190.25C78.9562 190.233 78.9621 190.213 78.9621 190.193C78.9621 190.172 78.9562 190.152 78.945 190.135C78.815 189.865 77.89 189.635 77.185 189.525Z" fill="#263238"/>
<path d="M77.24 189.5C77.1278 189.503 77.0155 189.495 76.905 189.475C76.8896 189.473 76.875 189.466 76.8627 189.457C76.8505 189.447 76.8409 189.434 76.835 189.42C76.8275 189.405 76.8236 189.389 76.8236 189.373C76.8236 189.356 76.8275 189.34 76.835 189.325C76.865 189.29 77.54 188.475 78.18 188.42C78.3612 188.406 78.5407 188.463 78.68 188.58C78.875 188.75 78.865 188.9 78.815 188.995C78.69 189.335 77.825 189.5 77.24 189.5ZM77.11 189.315C77.67 189.345 78.565 189.16 78.68 188.915C78.68 188.915 78.72 188.835 78.59 188.725C78.5383 188.68 78.4778 188.646 78.4125 188.626C78.3471 188.605 78.2782 188.598 78.21 188.605C77.7789 188.725 77.395 188.975 77.11 189.32V189.315Z" fill="#263238"/>
<path d="M70.26 187.46L66.02 186.26C65.9469 186.238 65.8682 186.243 65.799 186.276C65.7298 186.308 65.675 186.365 65.645 186.435L64.215 189.65C64.1814 189.732 64.1656 189.821 64.1687 189.91C64.1718 189.999 64.1937 190.086 64.2329 190.166C64.2721 190.245 64.3277 190.316 64.3962 190.373C64.4646 190.43 64.5443 190.471 64.63 190.495C66.13 190.885 66.85 190.995 68.715 191.53C69.865 191.85 71.505 192.445 73.09 192.895C74.675 193.345 75.205 191.8 74.59 191.47C71.81 190 71.59 188.97 70.83 187.87C70.6939 187.671 70.4921 187.526 70.26 187.46Z" fill="#1A66FF"/>
<path d="M76.97 188.87L73.35 186.37C73.2886 186.325 73.213 186.305 73.1374 186.312C73.0618 186.319 72.9916 186.354 72.94 186.41L70.54 188.99C70.4815 189.057 70.4379 189.135 70.412 189.22C70.3862 189.305 70.3787 189.394 70.39 189.482C70.4014 189.57 70.4313 189.655 70.4779 189.73C70.5244 189.806 70.5865 189.87 70.66 189.92C71.935 190.775 72.595 191.12 74.19 192.225C75.19 192.905 77.125 194.415 78.475 195.355C79.825 196.295 80.83 195.005 80.35 194.495C78.2 192.2 77.73 190.76 77.375 189.455C77.3134 189.218 77.1699 189.011 76.97 188.87Z" fill="#1A66FF"/>
<path d="M74.035 184.22L67.51 180.975L68.185 179.205L75.155 182.625L74.035 184.22Z" fill="#1A66FF"/>
<path d="M65.55 123.06L65 124.5C64.945 124.61 65.075 124.725 65.26 124.725H81.8C81.945 124.725 82.065 124.655 82.075 124.565L82.215 123.135C82.215 123.04 82.1 122.955 81.945 122.955H65.81C65.7614 122.95 65.7125 122.958 65.6672 122.976C65.622 122.994 65.5818 123.023 65.55 123.06Z" fill="#1A66FF"/>
<path opacity="0.4" d="M65.55 123.06L65 124.5C64.945 124.61 65.075 124.725 65.26 124.725H81.8C81.945 124.725 82.065 124.655 82.075 124.565L82.215 123.135C82.215 123.04 82.1 122.955 81.945 122.955H65.81C65.7614 122.95 65.7125 122.958 65.6672 122.976C65.622 122.994 65.5818 123.023 65.55 123.06Z" fill="white"/>
<path d="M68.155 124.865H67.72C67.635 124.865 67.57 124.82 67.575 124.765L67.78 122.91C67.78 122.86 67.86 122.815 67.945 122.815H68.38C68.465 122.815 68.53 122.86 68.525 122.91L68.32 124.765C68.315 124.82 68.24 124.865 68.155 124.865Z" fill="#1A66FF"/>
<path d="M78.355 124.865H77.925C77.84 124.865 77.775 124.82 77.78 124.765L77.98 122.91C77.98 122.86 78.065 122.815 78.15 122.815H78.58C78.665 122.815 78.735 122.86 78.725 122.91L78.525 124.765C78.5 124.82 78.445 124.865 78.355 124.865Z" fill="#1A66FF"/>
<g style="mix-blend-mode:multiply">
<path d="M67.775 209.54C75.1729 209.54 81.17 209.106 81.17 208.57C81.17 208.034 75.1729 207.6 67.775 207.6C60.3772 207.6 54.38 208.034 54.38 208.57C54.38 209.106 60.3772 209.54 67.775 209.54Z" fill="#F5F5F5"/>
</g>
<path d="M75.935 207.2C73.565 206.51 70.935 205.625 69.345 204.7C69.3 204.67 69.25 204.655 69.205 204.63V193.9H74C74.364 193.878 74.706 193.719 74.9561 193.453C75.2062 193.188 75.3455 192.837 75.3455 192.472C75.3455 192.108 75.2062 191.757 74.9561 191.492C74.706 191.226 74.364 191.067 74 191.045H69.23V142.135H66.35V191.045H61.585C61.3905 191.033 61.1956 191.062 61.0124 191.128C60.8292 191.195 60.6615 191.298 60.5197 191.432C60.3778 191.566 60.2648 191.727 60.1876 191.906C60.1103 192.085 60.0705 192.278 60.0705 192.472C60.0705 192.667 60.1103 192.86 60.1876 193.039C60.2648 193.218 60.3778 193.379 60.5197 193.513C60.6615 193.647 60.8292 193.75 61.0124 193.817C61.1956 193.883 61.3905 193.911 61.585 193.9H66.35V204.615C66.305 204.615 66.26 204.655 66.215 204.685C64.6 205.625 61.99 206.51 59.62 207.185C59.4599 207.233 59.3225 207.338 59.2325 207.479C59.1425 207.62 59.106 207.788 59.1296 207.954C59.1532 208.119 59.2353 208.271 59.361 208.381C59.4867 208.492 59.6478 208.553 59.815 208.555H75.74C75.8998 208.544 76.0511 208.479 76.1685 208.37C76.286 208.261 76.3625 208.115 76.3853 207.956C76.4081 207.798 76.3759 207.636 76.2939 207.499C76.212 207.361 76.0853 207.256 75.935 207.2Z" fill="#E0E0E0"/>
<path d="M76.67 137.155H58.89C57.4596 137.155 56.3 138.315 56.3 139.745V145.03C56.3 146.46 57.4596 147.62 58.89 147.62H76.67C78.1004 147.62 79.26 146.46 79.26 145.03V139.745C79.26 138.315 78.1004 137.155 76.67 137.155Z" fill="#1A66FF"/>
<path d="M58.725 147.625V148.535C58.725 149.285 59.54 149.895 60.54 149.895H75.04C76.04 149.895 76.855 149.285 76.855 148.535V147.625H58.725Z" fill="#1A66FF"/>
<path opacity="0.3" d="M58.725 147.625V148.535C58.725 149.285 59.54 149.895 60.54 149.895H75.04C76.04 149.895 76.855 149.285 76.855 148.535V147.625H58.725Z" fill="white"/>
</svg>
