<svg width="66" height="60" viewBox="0 0 66 60" fill="none" xmlns="http://www.w3.org/2000/svg">
<path d="M26.5142 12.4558C28.1648 11.7637 28.8569 9.79369 28.1115 8.19641L25.5026 2.71243C24.7572 1.16893 22.947 0.47624 21.3497 1.16893C16.8241 3.08566 12.9374 5.58806 9.84932 8.62288C6.0691 12.1896 3.51346 16.2893 2.12915 20.8149C0.744846 25.3943 -0.000549316 31.6231 -0.000549316 39.5563V55.9017C-0.000549316 57.6587 1.437 59.0963 3.194 59.0963H24.1183C25.8753 59.0963 27.3129 57.6587 27.3129 55.9017V34.9774C27.3129 33.2199 25.8753 31.7829 24.1183 31.7829H14.1087C14.2152 26.4048 15.493 22.0927 17.8357 18.8444C19.7524 16.2366 22.6275 14.1069 26.5142 12.4558Z" fill="#1A66FF"/>
<path d="M64.1035 12.4558C65.754 11.7637 66.4456 9.79369 65.7008 8.19642L63.0919 2.76621C62.3465 1.22218 60.5362 0.530024 58.939 1.22218C54.4666 3.13891 50.6326 5.64131 47.4918 8.62289C43.7111 12.2434 41.1027 16.3431 39.7179 20.8687C38.3336 25.3405 37.6419 31.5704 37.6419 39.5568V55.9023C37.6419 57.6593 39.0795 59.0968 40.8365 59.0968H61.7608C63.5178 59.0968 64.9554 57.6593 64.9554 55.9023V34.978C64.9554 33.2204 63.5178 31.7834 61.7608 31.7834H51.698C51.8045 26.4054 53.0828 22.0933 55.4249 18.8449C57.3417 16.2366 60.2168 14.1069 64.1035 12.4558Z" fill="#1A66FF"/>
</svg>
